<svg width="9" height="9" viewBox="0 0 9 9" fill="none" xmlns="http://www.w3.org/2000/svg">
<path d="M4.47 8.34C3.92333 8.34 3.41 8.23667 2.93 8.03C2.45 7.83 2.02667 7.55 1.66 7.19C1.3 6.82333 1.01667 6.4 0.81 5.92C0.61 5.44 0.51 4.92667 0.51 4.38C0.51 3.82667 0.61 3.31333 0.81 2.84C1.01667 2.36 1.3 1.94 1.66 1.58C2.02667 1.21333 2.45 0.93 2.93 0.729999C3.41 0.523333 3.92333 0.42 4.47 0.42C5.02333 0.42 5.53667 0.523333 6.01 0.729999C6.49 0.93 6.91 1.21333 7.27 1.58C7.63667 1.94 7.92 2.36 8.12 2.84C8.32667 3.31333 8.43 3.82667 8.43 4.38C8.43 4.92667 8.32667 5.44 8.12 5.92C7.92 6.4 7.63667 6.82333 7.27 7.19C6.91 7.55 6.49 7.83 6.01 8.03C5.53667 8.23667 5.02333 8.34 4.47 8.34Z" fill="#F3A454"/>
</svg>
