<svg width="24" height="25" viewBox="0 0 24 25" fill="none" xmlns="http://www.w3.org/2000/svg">
<path fill-rule="evenodd" clip-rule="evenodd" d="M11.9973 5.00002C11.3291 4.99845 10.663 5.07458 10.0124 5.22687C9.74352 5.2898 9.47453 5.12286 9.4116 4.85398C9.34866 4.58511 9.51561 4.31612 9.78448 4.25318C10.5104 4.08327 11.2535 3.99832 11.999 4.00003C15.6985 4.00025 18.5713 6.11335 20.4882 8.15805C21.4513 9.18532 22.188 10.2107 22.6841 10.9788C22.9324 11.3633 23.1212 11.6846 23.2487 11.9111C23.3124 12.0245 23.3608 12.1142 23.3937 12.1763C23.4102 12.2074 23.4228 12.2316 23.4314 12.2485L23.4415 12.2681L23.4443 12.2737L23.4452 12.2754C23.4453 12.2757 23.4457 12.2764 22.9984 12.5L22.5575 12.2643C22.5158 12.3424 22.4735 12.4201 22.4306 12.4975C22.4144 12.4681 22.3966 12.436 22.3771 12.4014C22.2584 12.1905 22.0801 11.8868 21.844 11.5213C21.3713 10.7894 20.6706 9.81473 19.7587 8.842C17.9257 6.88681 15.2987 5.00003 11.9984 5.00003L11.9973 5.00002ZM22.4306 12.4975C21.8668 13.5158 21.2055 14.4772 20.4559 15.3681C20.2781 15.5794 20.3052 15.8948 20.5165 16.0726C20.7278 16.2504 21.0432 16.2232 21.221 16.0119C22.0725 15.0001 22.816 13.902 23.4394 12.7357C23.5158 12.5927 23.5182 12.4215 23.4457 12.2764L22.9984 12.5C22.5512 12.7236 22.5513 12.7238 22.5513 12.7238L22.5495 12.7203L22.5421 12.7057C22.5352 12.6923 22.5244 12.6715 22.5099 12.644C22.4903 12.6071 22.4639 12.5578 22.4306 12.4975ZM6.45739 6.25657C6.62498 6.47605 6.58292 6.78982 6.36345 6.95741C4.39974 8.45692 2.76752 10.3451 1.56807 12.503C1.58423 12.5323 1.60198 12.5642 1.62133 12.5986C1.73999 12.8096 1.91836 13.1133 2.15439 13.4788C2.62709 14.2107 3.32783 15.1853 4.23977 16.1581C6.072 18.1124 8.69759 19.9985 11.9959 20C14.0369 19.9658 16.0134 19.2799 17.6369 18.0424C17.8565 17.875 18.1702 17.9173 18.3377 18.1369C18.5051 18.3565 18.4627 18.6703 18.2431 18.8377C16.4488 20.2054 14.264 20.9631 12.0082 21L12 21.0001C8.30025 21.0001 5.42724 18.8868 3.51023 16.842C2.54717 15.8147 1.81041 14.7894 1.31436 14.0213C1.06602 13.6368 0.877193 13.3155 0.749759 13.0889C0.686023 12.9756 0.637588 12.8859 0.604692 12.8237C0.588242 12.7926 0.575673 12.7684 0.567013 12.7516L0.556958 12.7319L0.554135 12.7263L0.553277 12.7246C0.553169 12.7244 0.552786 12.7236 1 12.5L0.552786 12.7236C0.480131 12.5783 0.482605 12.4068 0.559422 12.2636C1.83702 9.88269 3.60902 7.80251 5.75655 6.16264C5.97602 5.99505 6.2898 6.0371 6.45739 6.25657ZM10.2458 10.0392C10.4341 10.2412 10.4229 10.5576 10.2209 10.7458C9.55202 11.3691 9.2767 12.3077 9.50291 13.1935C9.72912 14.0792 10.4208 14.7709 11.3066 14.9971C12.1923 15.2233 13.131 14.948 13.7542 14.2792C13.9424 14.0771 14.2588 14.066 14.4609 14.2542C14.6629 14.4425 14.6741 14.7589 14.4858 14.9609C13.6133 15.8973 12.2992 16.2827 11.0591 15.966C9.81903 15.6493 8.8507 14.681 8.53401 13.4409C8.21731 12.2008 8.60276 10.8867 9.53914 10.0142C9.74117 9.82597 10.0576 9.83714 10.2458 10.0392Z" fill="#211D1D"/>
<path fill-rule="evenodd" clip-rule="evenodd" d="M0.646447 1.14645C0.841709 0.951184 1.15829 0.951184 1.35355 1.14645L23.3536 23.1464C23.5488 23.3417 23.5488 23.6583 23.3536 23.8536C23.1583 24.0488 22.8417 24.0488 22.6464 23.8536L0.646447 1.85355C0.451184 1.65829 0.451184 1.34171 0.646447 1.14645Z" fill="#211D1D"/>
</svg>
