<svg width="512" height="512" viewBox="0 0 512 512" fill="none" xmlns="http://www.w3.org/2000/svg">
<circle cx="256" cy="256" r="256" fill="#FFFFFA"/>
<path fill-rule="evenodd" clip-rule="evenodd" d="M342.392 147.66C344.988 147.66 347.289 149.385 347.821 151.644L388.004 321.414C390.305 331.761 392.606 340.383 406.237 344.13C409.128 344.962 410.249 346.984 409.954 349.303C409.954 351.86 407.417 353.882 403.995 353.882H365.818C362.395 353.882 360.389 351.86 360.389 349.303C360.389 346.984 361.805 344.962 364.637 344.665C368.65 344.367 372.898 343.238 374.314 339.789C376.085 335.567 373.783 325.815 372.367 319.928C372.131 318.976 371.954 318.084 371.777 317.371L364.932 288.412C364.637 286.925 363.516 285.795 361.51 285.795H317.078C315.072 285.795 313.931 286.667 313.656 288.412L306.516 317.965C304.51 325.696 303.094 333.783 304.805 338.362C305.926 341.811 309.643 343.832 314.777 344.367C317.609 344.962 319.321 346.687 319.321 349.006C319.321 351.86 317.078 353.882 313.656 353.882C309.938 353.584 301.087 353.584 296.839 353.584C289.994 353.584 285.687 353.584 281.143 353.882C277.426 353.882 275.125 351.563 274.889 348.708C274.889 346.389 276.305 344.367 279.137 343.535C290.82 341.156 293.771 328.609 295.895 319.452C296.131 318.54 296.347 317.668 296.544 316.836L307.578 271.821C292.237 277.827 272.174 281.157 255.83 281.157C250.322 281.157 245.012 280.82 239.898 280.146L241.373 376.656C241.373 377.41 241.393 378.163 241.432 378.916C241.609 391.998 241.786 402.88 259.075 404.486C262.202 404.783 263.913 406.805 263.913 409.362C263.618 411.978 261.612 414 258.19 414H210.572C207.444 414 204.907 411.978 204.907 409.362C204.907 406.805 206.618 404.783 209.746 404.486C225.913 402.642 225.795 391.344 225.736 379.392C225.697 378.48 225.677 377.568 225.677 376.656L224.674 277.173C218.184 275.389 212.106 273.07 206.5 270.216L187.795 307.678C186.91 309.403 185.199 310.295 183.252 310.295C181.541 310.295 179.829 309.403 178.944 307.975L141.357 245.954C140.472 244.527 137.935 244.825 137.935 246.787L135.929 377.489C135.929 378.163 135.929 378.837 135.929 379.511C135.811 388.49 135.693 401.275 147.612 404.248C150.149 405.08 151.329 406.805 151.329 409.124C151.329 411.978 148.733 414 145.311 413.703H107.429C104.006 414 102 411.681 102 409.124C102 406.805 103.416 404.783 106.248 404.486C124.658 402.286 125.071 391.82 125.603 378.203C125.603 377.687 125.622 377.172 125.662 376.656L128.199 245.062C128.199 235.905 127.078 223.834 114.568 221.812C112.267 221.277 110.261 219.552 110.261 217.233C110.261 214.379 112.857 212.357 116.28 212.357C119.407 212.654 123.36 212.654 126.488 212.654C129.379 212.654 133.096 212.654 136.46 212.357C139.056 212.06 141.357 213.19 142.478 214.617L185.494 288.769C186.084 289.601 187.795 289.601 188.385 288.471L199.243 266.172C169.562 247.679 153.218 213.665 153.218 172.873C153.218 111.684 195.702 70 255.004 70C274.948 70 296.308 75.768 315.131 83.201C319.674 84.9255 322.802 88.9691 323.097 93.8451L325.929 123.993C326.224 126.313 324.513 128.037 322.566 128.037C320.56 128.037 319.143 126.907 318.848 125.183C312.299 91.2882 287.752 78.325 255.004 78.325C199.42 78.325 170.329 120.842 170.329 171.981C170.329 207.243 182.898 236.619 204.848 254.517L224.261 214.617C225.146 213.19 227.153 212.357 229.395 212.357C233.407 212.892 237.361 212.892 241.078 212.892C243.969 212.892 247.923 212.654 251.05 212.357C254.767 212.357 257.069 214.379 257.069 217.233C257.069 219.552 255.653 221.277 253.056 221.812C239.957 223.834 239.367 235.31 239.367 244.825L239.78 271.167C246.389 272.654 253.351 273.367 260.668 273.367C290.407 273.367 307.873 259.631 316.665 234.656L337.022 151.644C337.553 149.385 339.56 147.66 342.392 147.66ZM224.556 266.351L224.261 241.376C224.261 239.651 221.724 239.354 221.134 240.781L211.752 259.572C215.764 262.188 220.032 264.448 224.556 266.351ZM339.855 180.96L316.783 275.449C316.488 276.876 317.078 278.065 319.025 278.065H359.799C361.51 278.065 362.395 276.876 362.1 275.449L339.855 180.96Z" fill="#211D1D"/>
</svg>
