<svg width="17" height="17" viewBox="0 0 17 17" fill="none" xmlns="http://www.w3.org/2000/svg">
<path fill-rule="evenodd" clip-rule="evenodd" d="M8.26357 5.519C7.46258 5.38161 6.67927 5.84196 6.40959 6.60861C6.3485 6.78227 6.15819 6.87353 5.98453 6.81244C5.81087 6.75135 5.71961 6.56104 5.7807 6.38738C6.15826 5.31408 7.25489 4.66958 8.37628 4.86193C9.49761 5.05427 10.3167 6.02727 10.3151 7.16495C10.315 8.00842 9.68678 8.59529 9.16671 8.94201C8.8965 9.12215 8.62866 9.25583 8.42969 9.34426C8.32973 9.38869 8.24597 9.42222 8.18641 9.4449C8.15661 9.45626 8.13279 9.46493 8.11594 9.47092L8.096 9.4779L8.09017 9.47989L8.08833 9.48051L8.08768 9.48073C8.08757 9.48077 8.08722 9.48089 7.98181 9.16466L8.08768 9.48073C7.91303 9.53895 7.7238 9.44471 7.66558 9.27007C7.6074 9.09552 7.70164 8.90686 7.8761 8.84853C7.876 8.84856 7.8762 8.8485 7.8761 8.84853M7.8761 8.84853L7.87909 8.84751L7.8926 8.84277C7.90505 8.83835 7.9242 8.83139 7.94908 8.82191C7.9989 8.80293 8.07139 8.77396 8.15893 8.73505C8.33496 8.65682 8.56712 8.5405 8.79691 8.38731C9.27678 8.0674 9.64848 7.65437 9.64848 7.16466C9.64969 6.35196 9.06457 5.65639 8.26357 5.519" fill="#211D1D"/>
<path fill-rule="evenodd" clip-rule="evenodd" d="M1.03516 8.5C1.03516 4.63401 4.16916 1.5 8.03516 1.5C11.9011 1.5 15.0352 4.63401 15.0352 8.5C15.0352 12.366 11.9011 15.5 8.03516 15.5C4.16916 15.5 1.03516 12.366 1.03516 8.5ZM8.03516 2.16667C4.53735 2.16667 1.70182 5.0022 1.70182 8.5C1.70182 11.9978 4.53735 14.8333 8.03516 14.8333C11.533 14.8333 14.3685 11.9978 14.3685 8.5C14.3685 5.0022 11.533 2.16667 8.03516 2.16667Z" fill="#211D1D"/>
<path d="M8.7015 11.8307C8.7015 12.1989 8.40302 12.4974 8.03483 12.4974C7.66664 12.4974 7.36816 12.1989 7.36816 11.8307C7.36816 11.4625 7.66664 11.1641 8.03483 11.1641C8.40302 11.1641 8.7015 11.4625 8.7015 11.8307Z" fill="#211D1D"/>
</svg>
