<svg width="229" height="30" viewBox="0 0 229 30" fill="none" xmlns="http://www.w3.org/2000/svg">
<path d="M228.441 22.8551C228.519 22.85 228.597 22.8616 228.669 22.8891C228.742 22.9166 228.807 22.9593 228.86 23.014C228.913 23.0687 228.953 23.1341 228.976 23.2054C228.999 23.2767 229.006 23.352 228.995 23.426C228.697 24.6905 228.143 27.5065 227.889 28.7726C227.845 29.1387 227.461 29.3839 226.993 29.3839C224.735 29.3436 224.011 29.3032 221.796 29.3032C219.624 29.3032 217.366 29.3436 215.192 29.3839C215.097 29.3898 215.002 29.3775 214.911 29.3478C214.821 29.318 214.738 29.2714 214.667 29.2106C214.595 29.1499 214.537 29.0762 214.496 28.9938C214.455 28.9114 214.431 28.822 214.426 28.7307C214.429 28.5663 214.497 28.4091 214.615 28.2897C214.733 28.1704 214.893 28.0976 215.064 28.0855C216.94 27.7985 217.024 26.2888 217.024 24.576V5.42816C217.024 3.83628 217.152 2.20245 215.108 2.00085C214.929 1.99675 214.758 1.92662 214.631 1.80499C214.504 1.68337 214.43 1.51959 214.426 1.34764C214.426 1.25321 214.447 1.15982 214.486 1.07315C214.525 0.986486 214.582 0.908348 214.654 0.843485C214.726 0.778621 214.81 0.728387 214.903 0.695834C214.995 0.66328 215.094 0.649086 215.192 0.654114C217.11 0.734757 218.856 0.734757 220.901 0.734757C223.031 0.734757 225.203 0.694436 227.207 0.654114C227.633 0.654114 227.88 0.899268 227.88 1.22506V6.61361C227.866 6.74238 227.801 6.86096 227.697 6.94453C227.594 7.02809 227.461 7.07018 227.326 7.06198C227.196 7.05975 227.07 7.0136 226.972 6.93162C226.873 6.84964 226.808 6.73706 226.788 6.61361C226.619 4.1653 226.744 1.9202 222.868 1.9202H220.354C219.758 1.9202 219.417 2.24278 219.417 2.73631V13.265C219.417 13.6311 219.672 13.9102 220.14 13.9102H223.42C225.422 13.9102 225.422 12.0747 225.422 10.8086C225.422 10.6054 225.634 10.4006 225.976 10.4006C226.36 10.4006 226.53 10.6054 226.53 10.8086V18.481C226.53 18.6858 226.316 18.889 225.976 18.889C225.636 18.889 225.422 18.6858 225.422 18.4407C225.464 17.0939 225.59 14.9714 223.376 14.9714H220.139C219.671 14.9714 219.415 15.2569 219.415 15.6166V24.1873C219.415 27.4517 220.225 28.2194 222.95 28.2194C226.87 28.2194 227.254 25.7711 227.85 23.2405C227.889 23.1219 227.968 23.0193 228.075 22.9493C228.183 22.8793 228.311 22.8461 228.441 22.8551Z" fill="#211D1D"/>
<path d="M211.005 28.113C211.475 28.1533 211.729 28.3984 211.729 28.7258C211.724 28.817 211.7 28.9064 211.658 28.9887C211.617 29.0709 211.559 29.1446 211.488 29.2053C211.417 29.266 211.334 29.3126 211.244 29.3425C211.153 29.3723 211.058 29.3847 210.963 29.379C210.458 29.3371 209.941 29.3371 209.471 29.3371C208.966 29.3371 208.279 29.3371 207.725 29.379C207.567 29.4009 207.406 29.3777 207.262 29.3123C207.118 29.2469 206.998 29.1422 206.915 29.0113L200.181 16.4004C200.129 16.2961 200.042 16.2113 199.934 16.1596C199.826 16.1079 199.703 16.0922 199.585 16.1149C198.929 16.1151 198.275 16.0741 197.625 15.9924C197.56 15.9803 197.493 15.9816 197.429 15.9962C197.365 16.0108 197.304 16.0382 197.252 16.0768C197.2 16.1154 197.157 16.1642 197.125 16.22C197.094 16.2758 197.076 16.3373 197.071 16.4004V24.4002C197.071 26.0727 196.943 27.7452 199.201 28.0307C199.585 28.113 199.841 28.3533 199.841 28.6839C199.883 29.0516 199.504 29.379 198.989 29.379C197.923 29.3371 197.029 29.3371 195.835 29.3371C195.111 29.3371 193.876 29.2968 192.805 29.379C192.251 29.4194 191.867 29.092 191.867 28.7258C191.873 28.5567 191.946 28.396 192.071 28.2763C192.196 28.1566 192.364 28.0867 192.54 28.0807C194.798 27.7581 194.67 26.0404 194.67 24.3711V5.50397C194.67 3.74918 194.798 2.27826 192.583 2.03472C192.114 1.9944 191.859 1.6686 191.909 1.34119C191.953 0.973459 192.293 0.729918 192.761 0.729918C194.211 0.77024 194.467 0.77024 196.084 0.77024C197.064 0.77024 198.47 0.687984 199.748 0.687984C205.201 0.687984 207.203 4.97334 207.203 8.15711C207.203 11.0602 206.181 14.1553 202.816 15.415C202.755 15.4368 202.7 15.4705 202.654 15.5138C202.608 15.5571 202.572 15.6092 202.547 15.6667C202.523 15.7242 202.512 15.7858 202.514 15.8477C202.516 15.9096 202.532 15.9704 202.56 16.0262L208.491 26.7743C209.003 27.7049 209.855 28.0307 211.005 28.113ZM199.758 15.0488C203.252 15.0488 204.658 11.3764 204.658 8.52C204.658 5.66364 203.764 1.70408 199.248 1.70408C198.806 1.70958 198.365 1.73649 197.926 1.78473C197.253 1.86698 197.074 2.23471 197.074 2.68308V13.1666C197.074 14.4827 198.438 15.0537 199.758 15.0537V15.0488Z" fill="#211D1D"/>
<path d="M181.1 0.607341L187.107 24.726C187.444 26.1953 187.781 27.4194 189.833 27.9517C190.259 28.0742 190.429 28.3597 190.387 28.6855C190.387 29.0533 190.003 29.3307 189.493 29.3307H183.784C183.279 29.3307 182.974 29.0452 182.974 28.6855C182.968 28.5177 183.033 28.3546 183.153 28.2321C183.273 28.1096 183.438 28.0378 183.614 28.0323C184.21 27.992 184.85 27.8291 185.062 27.3388C185.36 26.6453 184.85 24.8905 184.678 24.1566L183.656 20.0342C183.633 19.9242 183.57 19.8259 183.476 19.7581C183.383 19.6903 183.267 19.6576 183.151 19.6664H176.504C176.206 19.6664 176.038 19.789 175.999 20.0342L174.931 24.2357C174.633 25.3372 174.426 26.4807 174.675 27.1388C174.844 27.6226 175.399 27.9146 176.167 27.9952C176.593 28.0775 176.84 28.3178 176.84 28.6484C176.84 29.0565 176.504 29.3419 175.988 29.3419C175.435 29.3016 174.113 29.3016 173.475 29.3016C172.451 29.3016 171.813 29.3016 171.131 29.3419C170.577 29.3419 170.237 29.0194 170.193 28.6081C170.193 28.2855 170.407 27.9952 170.833 27.8726C172.751 27.5049 173.091 25.384 173.431 24.0776L179.477 0.607341C179.523 0.437176 179.628 0.287278 179.775 0.182962C179.923 0.0786466 180.104 0.0263054 180.287 0.0347782C180.469 0.0316186 180.647 0.0859472 180.794 0.189402C180.941 0.292857 181.049 0.439704 181.1 0.607341ZM179.906 4.77012L176.457 18.1955C176.414 18.4003 176.499 18.5632 176.793 18.5632H182.886C182.936 18.5693 182.987 18.5635 183.034 18.5464C183.081 18.5293 183.123 18.5014 183.157 18.4651C183.19 18.4288 183.213 18.3852 183.225 18.3382C183.237 18.2912 183.236 18.2422 183.223 18.1955L179.906 4.77012Z" fill="#211D1D"/>
<path d="M165.445 24.0728C165.489 26.0727 165.361 27.7823 168.087 28.0307C168.557 28.0726 168.811 28.3533 168.811 28.7258C168.769 29.092 168.474 29.371 167.959 29.371H160.846C160.376 29.371 159.994 29.0855 159.994 28.7258C159.994 28.3662 160.248 28.0807 160.718 28.0307C163.316 27.7452 163.104 25.9098 163.104 24.0728L162.89 4.85076C162.89 4.60561 162.506 4.56529 162.422 4.77012L157.436 14.286C157.37 14.4031 157.27 14.4993 157.147 14.5631C157.025 14.6269 156.886 14.6556 156.748 14.6456C156.622 14.6474 156.497 14.6187 156.386 14.5624C156.274 14.506 156.179 14.4237 156.11 14.3231L150.486 5.50719C150.455 5.4606 150.41 5.42456 150.356 5.40419C150.302 5.38383 150.243 5.38017 150.187 5.39374C150.132 5.40731 150.082 5.43742 150.044 5.47979C150.007 5.52217 149.985 5.57464 149.981 5.62977L149.676 24.1937C149.676 25.4582 149.508 27.5404 151.424 27.9888C151.586 28.0255 151.729 28.1146 151.83 28.241C151.931 28.3673 151.983 28.5232 151.978 28.6823C151.978 29.0903 151.594 29.3758 151.082 29.3274H145.423C144.918 29.3678 144.614 29.042 144.614 28.6823C144.608 28.5144 144.673 28.3514 144.792 28.2289C144.912 28.1064 145.078 28.0346 145.253 28.0291C148.107 27.7065 148.065 26.1114 148.149 24.0711L148.533 5.37978C148.533 4.07337 148.365 2.36051 146.488 2.07504C146.151 1.99278 145.849 1.75247 145.849 1.4299C145.849 1.02184 146.233 0.73637 146.743 0.73637C147.213 0.776691 147.809 0.776691 148.277 0.776691C148.703 0.776691 149.257 0.776691 149.769 0.73637C149.934 0.715305 150.102 0.733736 150.258 0.790019C150.414 0.846302 150.553 0.938689 150.663 1.05894L157.096 11.5877C157.124 11.6182 157.158 11.6421 157.197 11.6571C157.236 11.6721 157.278 11.6779 157.32 11.6739C157.362 11.67 157.402 11.6564 157.437 11.6343C157.473 11.6123 157.502 11.5825 157.522 11.5473L162.89 1.06378C163.018 0.858947 163.316 0.741208 163.657 0.741208C164.237 0.80733 164.82 0.834278 165.403 0.821851C165.829 0.821851 166.425 0.78153 166.895 0.741208C167.449 0.741208 167.789 1.02668 167.789 1.43474C167.788 1.59314 167.727 1.7458 167.617 1.86442C167.508 1.98305 167.357 2.05959 167.193 2.07988C165.233 2.36535 165.147 3.99756 165.147 5.34429L165.445 24.0728Z" fill="#211D1D"/>
<path d="M131.301 22.8551C131.727 22.8551 131.941 23.1405 131.855 23.4663C131.601 24.7324 131.003 27.4985 130.791 28.7726C130.705 29.1403 130.365 29.3839 129.853 29.3839C127.637 29.3436 126.913 29.3032 124.698 29.3032C122.482 29.3032 120.098 29.3436 117.882 29.3839C117.414 29.3839 117.115 29.0984 117.115 28.7307C117.115 28.4452 117.328 28.1597 117.754 28.0855C119.8 27.8404 119.926 25.9227 119.926 24.1679V5.59267C119.926 4.00079 119.97 2.246 117.84 2.00085C117.371 1.96053 117.167 1.67828 117.167 1.34764C117.167 0.979911 117.504 0.654114 118.019 0.7025C118.999 0.742821 120.191 0.742821 121.128 0.742821C122.066 0.742821 123.258 0.784755 124.238 0.7025C124.743 0.7025 125.09 0.987975 125.09 1.35571C125.09 1.67828 124.878 1.96859 124.417 2.00891C122.329 2.25407 122.329 4.00885 122.329 5.60074V24.405C122.329 27.263 123.055 28.242 125.78 28.242C129.742 28.242 130.126 25.834 130.722 23.3034C130.757 23.18 130.832 23.0704 130.936 22.9899C131.04 22.9095 131.168 22.8623 131.301 22.8551Z" fill="#211D1D"/>
<path d="M106.253 0.571859L112.261 24.6905C112.597 26.1598 112.934 27.3856 114.986 27.9162C115.412 28.0388 115.583 28.3242 115.54 28.6517C115.54 29.0194 115.157 29.3049 114.645 29.3049H108.932C108.427 29.3049 108.122 29.0194 108.122 28.6517C108.119 28.4851 108.184 28.3238 108.304 28.203C108.423 28.0822 108.588 28.0116 108.762 28.0065C109.358 27.9662 109.996 27.8033 110.21 27.313C110.508 26.6195 109.996 24.8647 109.826 24.1292L108.809 20.0003C108.786 19.8905 108.723 19.7924 108.629 19.7246C108.536 19.6569 108.421 19.6241 108.304 19.6326H101.652C101.354 19.6326 101.184 19.7551 101.147 20.0003L100.083 24.2034C99.7848 25.305 99.5777 26.4485 99.8269 27.1065C99.9953 27.5904 100.551 27.8823 101.319 27.9646C101.745 28.0452 101.992 28.2871 101.992 28.6097C101.992 29.0178 101.655 29.3032 101.14 29.3032C100.586 29.2613 99.2663 29.2613 98.6265 29.2613C97.6045 29.2613 96.9664 29.2613 96.2845 29.3032C95.7306 29.3032 95.3888 28.9807 95.3467 28.5678C95.3467 28.2452 95.5606 27.9565 95.9865 27.8339C97.9025 27.4662 98.2443 25.3437 98.5844 24.0389L104.634 0.571859C104.68 0.401993 104.785 0.252462 104.933 0.148463C105.08 0.0444631 105.261 -0.00764863 105.444 0.000908274C105.625 -0.00163985 105.803 0.0527853 105.949 0.155876C106.095 0.258967 106.202 0.405061 106.253 0.571859ZM105.06 4.73464L101.61 18.1616C101.566 18.3649 101.652 18.5294 101.947 18.5294H108.038C108.088 18.535 108.139 18.529 108.186 18.5117C108.232 18.4945 108.274 18.4666 108.307 18.4304C108.341 18.3942 108.364 18.3508 108.376 18.304C108.387 18.2572 108.387 18.2083 108.375 18.1616L105.06 4.73464Z" fill="#211D1D"/>
<path d="M72.2622 0.571859L78.2695 24.6905C78.6062 26.1598 78.9514 27.3856 80.997 27.9162C81.423 28.0388 81.593 28.3242 81.5509 28.6517C81.5509 29.0194 81.167 29.3049 80.6552 29.3049H74.9476C74.4425 29.3049 74.1378 29.0194 74.1378 28.6517C74.1337 28.4852 74.1985 28.324 74.3181 28.2031C74.4376 28.0822 74.6022 28.0116 74.7759 28.0065C75.3736 27.9662 76.0117 27.8033 76.2255 27.313C76.5235 26.6195 76.0117 24.8647 75.8417 24.1292L74.8197 20.0003C74.7966 19.8906 74.7326 19.7928 74.6396 19.7251C74.5466 19.6574 74.4311 19.6245 74.3146 19.6326H67.6625C67.3645 19.6326 67.1927 19.7551 67.1574 20.0003L66.0916 24.2034C65.7936 25.305 65.5865 26.4485 65.8374 27.1065C66.0058 27.5904 66.5614 27.8823 67.3274 27.9646C67.7534 28.0452 68.0009 28.2871 68.0009 28.6097C68.0009 29.0178 67.6642 29.3032 67.149 29.3032C66.5951 29.2613 65.2751 29.2613 64.6353 29.2613C63.6133 29.2613 62.9735 29.2613 62.2916 29.3032C61.7394 29.3032 61.3976 28.9807 61.3555 28.5678C61.3555 28.2452 61.5677 27.9565 61.9936 27.8339C63.9113 27.4662 64.2514 25.3437 64.5932 24.0389L70.6442 0.571859C70.6901 0.401993 70.7957 0.252462 70.9432 0.148463C71.0907 0.0444631 71.2711 -0.00764863 71.4541 0.000908274C71.6354 -0.00155345 71.8125 0.0529325 71.9585 0.156037C72.1044 0.259141 72.2111 0.405191 72.2622 0.571859ZM71.0702 4.73464L67.6187 18.1616C67.5766 18.3649 67.6625 18.5294 67.9554 18.5294H74.0469C74.0968 18.535 74.1474 18.529 74.1943 18.5117C74.2412 18.4945 74.2831 18.4666 74.3162 18.4304C74.3494 18.3942 74.3728 18.3508 74.3846 18.304C74.3963 18.2572 74.396 18.2083 74.3836 18.1616L71.0702 4.73464Z" fill="#211D1D"/>
<path d="M49.3174 22.3647C49.4459 22.3562 49.5731 22.393 49.6752 22.4682C49.7772 22.5434 49.847 22.6517 49.8714 22.7728C50.2535 24.8131 50.9775 28.5678 54.0451 28.5678C57.4124 28.5678 58.6044 25.5485 58.6044 23.1405C58.6044 18.8149 56.0908 17.8358 52.6393 14.8972C50.3411 12.9779 49.1895 10.6457 49.1895 8.08131C49.1895 5.06204 50.2973 0.000908274 55.5789 0.000908274C56.2608 0.000908274 59.0304 0.162194 59.1584 1.06217L59.5843 5.59267C59.5862 5.6567 59.5744 5.72041 59.5497 5.77992C59.5249 5.83943 59.4878 5.89348 59.4405 5.93877C59.3932 5.98406 59.3368 6.01964 59.2747 6.04332C59.2126 6.06701 59.1461 6.07831 59.0792 6.07653C58.9645 6.07717 58.8528 6.04146 58.7614 5.97495C58.6701 5.90844 58.6042 5.81487 58.5741 5.7088C58.3485 4.08143 57.8367 1.38796 55.153 1.38796C51.8311 1.38796 50.8933 4.45239 50.8933 6.65232C50.8933 10.449 53.4491 12.1618 56.5588 14.4472C59.3705 16.6101 60.7343 18.4471 60.7343 21.589C60.7343 24.6905 59.2005 29.9968 53.7892 29.9968C52.9373 29.9968 49.2737 29.5887 49.2737 28.3646L48.7686 22.8954C48.7197 22.6099 48.9336 22.3647 49.3174 22.3647Z" fill="#211D1D"/>
<path d="M37.8148 0.571859L43.822 24.6905C44.1587 26.1598 44.5039 27.3856 46.5495 27.9162C46.9755 28.0388 47.1455 28.3242 47.1034 28.6517C47.1034 29.0194 46.7196 29.3049 46.2077 29.3049H40.5002C39.9951 29.3049 39.6903 29.0194 39.6903 28.6517C39.6863 28.4852 39.7511 28.324 39.8706 28.2031C39.9901 28.0822 40.1547 28.0116 40.3284 28.0065C40.9261 27.9662 41.5642 27.8033 41.7781 27.313C42.0761 26.6195 41.5642 24.8647 41.3942 24.1292L40.3722 20.0003C40.3492 19.8906 40.2851 19.7928 40.1922 19.7251C40.0992 19.6574 39.9836 19.6245 39.8671 19.6326H33.215C32.917 19.6326 32.7453 19.7551 32.7099 20.0003L31.6442 24.2034C31.3462 25.305 31.1391 26.4485 31.39 27.1065C31.5583 27.5904 32.1139 27.8823 32.88 27.9646C33.3059 28.0452 33.5619 28.2871 33.5619 28.6097C33.5619 29.0178 33.2251 29.3032 32.7099 29.3032C32.156 29.2613 30.836 29.2613 30.1962 29.2613C29.1743 29.2613 28.5345 29.2613 27.8526 29.3032C27.3004 29.3032 26.9586 28.9807 26.9165 28.5678C26.9165 28.2452 27.1286 27.9565 27.5546 27.8339C29.4639 27.4662 29.8006 25.3437 30.1474 24.0324L36.1985 0.571859C36.2443 0.402276 36.3496 0.252958 36.4968 0.148989C36.6439 0.045019 36.8239 -0.00726881 37.0066 0.000908274C37.1879 -0.00155345 37.3651 0.0529325 37.511 0.156037C37.657 0.259141 37.7636 0.405191 37.8148 0.571859ZM36.6227 4.73464L33.1679 18.1616C33.1258 18.3649 33.2117 18.5294 33.5046 18.5294H39.5961C39.646 18.535 39.6966 18.529 39.7435 18.5117C39.7904 18.4945 39.8323 18.4666 39.8654 18.4304C39.8986 18.3942 39.922 18.3508 39.9337 18.304C39.9455 18.2572 39.9452 18.2083 39.9328 18.1616L36.6227 4.73464Z" fill="#211D1D"/>
<path d="M25.2632 21.468C25.349 21.4743 25.4324 21.4978 25.5081 21.5371C25.5837 21.5764 25.6498 21.6305 25.7021 21.696C25.7544 21.7615 25.7917 21.8368 25.8115 21.917C25.8313 21.9972 25.8332 22.0806 25.8171 22.1615L25.0493 26.7743C24.9814 27.1276 24.8261 27.4601 24.5965 27.7441C24.3668 28.0281 24.0695 28.2552 23.7293 28.4065C21.3823 29.4258 18.015 30 15.3364 30C5.62339 30 0 23.426 0 14.6118C0 5.91847 6.34736 0.000908274 15.2084 0.000908274C18.1918 0.000908274 21.3823 0.817013 24.1974 1.87827C24.5288 1.99031 24.8186 2.19308 25.0308 2.46145C25.243 2.72981 25.3683 3.05195 25.3911 3.3879L25.8171 7.67326C25.8304 7.80459 25.7909 7.93583 25.7066 8.04018C25.6223 8.14453 25.4995 8.2141 25.3635 8.23469C25.2274 8.25528 25.0883 8.22533 24.9745 8.15096C24.8608 8.07659 24.7809 7.96341 24.7513 7.83454C23.7714 3.02017 20.1078 1.18474 15.2084 1.18474C6.90296 1.18474 2.55578 7.22488 2.55578 14.4892C2.55578 22.8551 7.79698 28.8952 16.0603 28.8952C21.0877 28.8952 23.5593 26.4049 24.6671 21.9164C24.6974 21.7873 24.7732 21.6722 24.8818 21.5905C24.9904 21.5088 25.1251 21.4655 25.2632 21.468Z" fill="#211D1D"/>
</svg>
