<svg width="157" height="174" viewBox="0 0 157 174" fill="none" xmlns="http://www.w3.org/2000/svg">
<path fill-rule="evenodd" clip-rule="evenodd" d="M122.257 39.2816C123.572 39.2816 124.738 40.1538 125.007 41.2968L145.359 127.169C146.525 132.402 147.69 136.764 154.594 138.659C156.058 139.08 156.626 140.102 156.477 141.275C156.477 142.569 155.192 143.591 153.458 143.591H134.122C132.388 143.591 131.372 142.569 131.372 141.275C131.372 140.102 132.09 139.08 133.524 138.929C135.556 138.779 137.708 138.207 138.425 136.463C139.322 134.327 138.156 129.395 137.439 126.417C137.32 125.936 137.23 125.485 137.14 125.124L133.674 110.476C133.524 109.724 132.956 109.152 131.94 109.152H109.436C108.42 109.152 107.842 109.593 107.702 110.476L104.086 125.424C103.07 129.334 102.353 133.425 103.219 135.741C103.787 137.486 105.67 138.508 108.27 138.779C109.705 139.08 110.571 139.952 110.571 141.125C110.571 142.569 109.436 143.591 107.702 143.591C105.819 143.441 101.337 143.441 99.1847 143.441C95.7179 143.441 93.5362 143.441 91.2349 143.591C89.3521 143.591 88.1865 142.418 88.067 140.975C88.067 139.802 88.7843 138.779 90.2188 138.358C96.1363 137.155 97.6306 130.808 98.7065 126.176C98.8261 125.715 98.9356 125.274 99.0353 124.853L104.624 102.084C96.8536 105.122 86.6922 106.806 78.4137 106.806C75.6243 106.806 72.9345 106.636 70.3444 106.295L71.0916 155.111C71.0916 155.492 71.1015 155.873 71.1214 156.254C71.2111 162.871 71.3008 168.375 80.0575 169.188C81.6414 169.338 82.5081 170.361 82.5081 171.654C82.3587 172.977 81.3426 174 79.6092 174H55.4909C53.9069 174 52.6218 172.977 52.6218 171.654C52.6218 170.361 53.4885 169.338 55.0725 169.188C63.2613 168.255 63.2016 162.54 63.1717 156.495C63.1517 156.034 63.1418 155.572 63.1418 155.111L62.6337 104.791C59.3462 103.889 56.2679 102.716 53.4287 101.272L43.9548 120.221C43.5065 121.093 42.6398 121.544 41.6535 121.544C40.7868 121.544 39.9201 121.093 39.4718 120.371L20.4342 89.0002C19.9859 88.2783 18.7008 88.4287 18.7008 89.4213L17.6847 155.532C17.6847 155.873 17.6847 156.214 17.6847 156.555C17.6249 161.097 17.5651 167.563 23.6021 169.067C24.8873 169.488 25.485 170.361 25.485 171.534C25.485 172.977 24.17 174 22.4366 173.85H3.24955C1.51614 174 0.5 172.827 0.5 171.534C0.5 170.361 1.21728 169.338 2.65182 169.188C11.9764 168.075 12.1856 162.781 12.4545 155.893C12.4545 155.633 12.4645 155.372 12.4844 155.111L13.7695 88.549C13.7695 83.917 13.2017 77.8112 6.86579 76.7886C5.70022 76.5179 4.68409 75.6456 4.68409 74.4726C4.68409 73.0289 5.99909 72.0062 7.7325 72.0062C9.31648 72.1566 11.3189 72.1566 12.9028 72.1566C14.3673 72.1566 16.2501 72.1566 17.9536 72.0062C19.2686 71.8558 20.4342 72.4273 21.002 73.1492L42.7892 110.656C43.088 111.077 43.9548 111.077 44.2536 110.506L49.7527 99.2266C34.7199 89.8724 26.4413 72.6679 26.4413 52.0346C26.4413 21.0845 47.9595 0 77.9953 0C88.0969 0 98.9157 2.91754 108.449 6.67726C110.751 7.54952 112.335 9.59482 112.484 12.0612L113.919 27.3106C114.068 28.4837 113.201 29.3559 112.215 29.3559C111.199 29.3559 110.482 28.7844 110.332 27.9122C107.015 10.7678 94.5822 4.21089 77.9953 4.21089C49.8424 4.21089 35.1084 25.7165 35.1084 51.5834C35.1084 69.4195 41.4742 84.278 52.5919 93.3314L62.4245 73.1492C62.8728 72.4273 63.8889 72.0062 65.0246 72.0062C67.0569 72.2769 69.0593 72.2769 70.9421 72.2769C72.4066 72.2769 74.4089 72.1566 75.9929 72.0062C77.8757 72.0062 79.0413 73.0289 79.0413 74.4726C79.0413 75.6456 78.3241 76.5179 77.009 76.7886C70.3743 77.8112 70.0754 83.6162 70.0754 88.4287L70.2846 101.753C73.6319 102.505 77.1585 102.866 80.8644 102.866C95.9271 102.866 104.773 95.9181 109.227 83.2854L119.537 41.2968C119.806 40.1538 120.822 39.2816 122.257 39.2816ZM62.5739 99.3168L62.4245 86.6842C62.4245 85.8119 61.1394 85.6615 60.8405 86.3834L56.0886 95.888C58.1209 97.2114 60.2827 98.3544 62.5739 99.3168ZM120.972 56.1252L109.286 103.919C109.137 104.641 109.436 105.242 110.422 105.242H131.073C131.94 105.242 132.388 104.641 132.239 103.919L120.972 56.1252Z" fill="#BBB8B6"/>
</svg>
