<svg width="230" height="31" viewBox="0 0 230 31" fill="none" xmlns="http://www.w3.org/2000/svg">
<path d="M229.438 23.6169C229.517 23.6117 229.595 23.6237 229.668 23.6521C229.741 23.6805 229.806 23.7246 229.859 23.7812C229.913 23.8377 229.952 23.9053 229.976 23.9789C229.999 24.0526 230.006 24.1304 229.995 24.2069C229.695 25.5135 229.139 28.4234 228.884 29.7317C228.84 30.11 228.454 30.3633 227.984 30.3633C225.717 30.3217 224.989 30.28 222.764 30.28C220.583 30.28 218.315 30.3217 216.132 30.3633C216.036 30.3694 215.94 30.3567 215.85 30.326C215.759 30.2953 215.676 30.2471 215.604 30.1843C215.533 30.1215 215.474 30.0454 215.433 29.9602C215.391 29.8751 215.367 29.7827 215.363 29.6884C215.366 29.5185 215.433 29.356 215.552 29.2327C215.671 29.1094 215.832 29.0342 216.003 29.0217C217.887 28.7251 217.972 27.1651 217.972 25.3952V5.6091C217.972 3.96415 218.1 2.27587 216.047 2.06754C215.867 2.06331 215.695 1.99084 215.568 1.86516C215.44 1.73948 215.367 1.57025 215.363 1.39256C215.363 1.29498 215.383 1.19848 215.423 1.10893C215.462 1.01937 215.519 0.938626 215.591 0.871601C215.663 0.804576 215.748 0.752667 215.841 0.719028C215.934 0.685389 216.033 0.670722 216.132 0.675918C218.058 0.759249 219.812 0.759249 221.866 0.759249C224.005 0.759249 226.187 0.717584 228.199 0.675918C228.627 0.675918 228.875 0.929244 228.875 1.2659V6.83406C228.861 6.96713 228.795 7.08966 228.692 7.17601C228.588 7.26236 228.454 7.30585 228.319 7.29738C228.188 7.29508 228.062 7.24739 227.963 7.16268C227.864 7.07796 227.798 6.96163 227.778 6.83406C227.609 4.30414 227.734 1.98421 223.841 1.98421H221.317C220.718 1.98421 220.375 2.31753 220.375 2.82752V13.7072C220.375 14.0855 220.632 14.3738 221.102 14.3738H224.396C226.406 14.3738 226.406 12.4772 226.406 11.1689C226.406 10.9589 226.62 10.7473 226.963 10.7473C227.348 10.7473 227.519 10.9589 227.519 11.1689V19.097C227.519 19.3087 227.304 19.5187 226.963 19.5187C226.621 19.5187 226.406 19.3087 226.406 19.0554C226.449 17.6637 226.576 15.4705 224.352 15.4705H221.1C220.63 15.4705 220.373 15.7655 220.373 16.1371V24.9935C220.373 28.3667 221.186 29.1601 223.924 29.1601C227.861 29.1601 228.246 26.6301 228.845 24.0152C228.884 23.8926 228.964 23.7866 229.071 23.7143C229.179 23.642 229.308 23.6076 229.438 23.6169Z" fill="#BBB8B6"/>
<path d="M211.926 29.0501C212.398 29.0917 212.654 29.3451 212.654 29.6834C212.648 29.7776 212.624 29.8699 212.583 29.9549C212.541 30.04 212.483 30.1161 212.411 30.1788C212.34 30.2416 212.257 30.2897 212.166 30.3205C212.076 30.3514 211.98 30.3642 211.884 30.3584C211.377 30.315 210.858 30.315 210.386 30.315C209.879 30.315 209.189 30.315 208.632 30.3584C208.474 30.381 208.312 30.3569 208.167 30.2894C208.023 30.2218 207.902 30.1136 207.819 29.9784L201.055 16.9471C201.003 16.8393 200.915 16.7517 200.807 16.6982C200.699 16.6448 200.575 16.6286 200.456 16.6521C199.798 16.6522 199.141 16.6099 198.488 16.5254C198.423 16.513 198.356 16.5144 198.291 16.5294C198.227 16.5445 198.166 16.5728 198.113 16.6127C198.061 16.6526 198.017 16.703 197.986 16.7607C197.955 16.8183 197.936 16.8818 197.932 16.9471V25.2135C197.932 26.9418 197.803 28.6701 200.071 28.9651C200.456 29.0501 200.713 29.2984 200.713 29.64C200.756 30.02 200.375 30.3584 199.858 30.3584C198.787 30.315 197.889 30.315 196.69 30.315C195.963 30.315 194.722 30.2734 193.647 30.3584C193.09 30.4 192.705 30.0617 192.705 29.6834C192.711 29.5085 192.784 29.3426 192.91 29.2189C193.035 29.0952 193.204 29.0229 193.381 29.0167C195.649 28.6834 195.52 26.9085 195.52 25.1835V5.68743C195.52 3.87415 195.649 2.3542 193.423 2.10254C192.953 2.06088 192.696 1.72422 192.747 1.3859C192.791 1.00591 193.133 0.754249 193.603 0.754249C195.059 0.795914 195.316 0.795914 196.941 0.795914C197.925 0.795914 199.337 0.710917 200.62 0.710917C206.098 0.710917 208.108 5.13912 208.108 8.42902C208.108 11.4289 207.082 14.6272 203.701 15.9288C203.641 15.9514 203.585 15.9862 203.539 16.0309C203.493 16.0757 203.456 16.1295 203.432 16.1889C203.408 16.2483 203.396 16.312 203.399 16.376C203.401 16.4399 203.416 16.5027 203.444 16.5604L209.402 27.6668C209.916 28.6284 210.771 28.9651 211.926 29.0501ZM200.631 15.5505C204.139 15.5505 205.551 11.7556 205.551 8.804C205.551 5.85243 204.653 1.76089 200.118 1.76089C199.675 1.76656 199.231 1.79438 198.791 1.84422C198.114 1.92921 197.935 2.3092 197.935 2.77252V13.6055C197.935 14.9655 199.305 15.5555 200.631 15.5555V15.5505Z" fill="#BBB8B6"/>
<path d="M181.891 0.627586L187.924 25.5502C188.263 27.0684 188.601 28.3334 190.662 28.8834C191.09 29.0101 191.261 29.305 191.218 29.6417C191.218 30.0217 190.833 30.3084 190.32 30.3084H184.586C184.079 30.3084 183.773 30.0134 183.773 29.6417C183.767 29.4683 183.832 29.2997 183.953 29.1732C184.073 29.0466 184.24 28.9724 184.415 28.9667C185.014 28.9251 185.657 28.7567 185.87 28.2501C186.169 27.5334 185.657 25.7202 185.484 24.9618L184.458 20.702C184.435 20.5883 184.371 20.4867 184.278 20.4167C184.184 20.3466 184.068 20.3129 183.95 20.322H177.274C176.976 20.322 176.807 20.4487 176.767 20.702L175.695 25.0435C175.396 26.1818 175.188 27.3634 175.438 28.0434C175.607 28.5434 176.165 28.8451 176.936 28.9284C177.364 29.0134 177.613 29.2617 177.613 29.6034C177.613 30.025 177.274 30.32 176.757 30.32C176.201 30.2784 174.873 30.2784 174.232 30.2784C173.204 30.2784 172.563 30.2784 171.878 30.32C171.322 30.32 170.98 29.9867 170.937 29.5617C170.937 29.2284 171.151 28.9284 171.579 28.8017C173.505 28.4217 173.847 26.2301 174.188 24.8802L180.261 0.627586C180.306 0.451749 180.412 0.296854 180.561 0.189061C180.709 0.0812682 180.89 0.0271823 181.074 0.0359375C181.257 0.0326725 181.436 0.0888121 181.584 0.195716C181.731 0.302619 181.839 0.454361 181.891 0.627586ZM180.692 4.92912L177.227 18.802C177.185 19.0137 177.269 19.182 177.565 19.182H183.685C183.735 19.1883 183.786 19.1823 183.834 19.1646C183.881 19.1469 183.923 19.1181 183.957 19.0806C183.99 19.0431 184.013 18.9981 184.025 18.9495C184.037 18.9009 184.036 18.8503 184.023 18.802L180.692 4.92912Z" fill="#BBB8B6"/>
<path d="M166.168 24.8752C166.212 26.9418 166.083 28.7084 168.821 28.9651C169.293 29.0084 169.548 29.2984 169.548 29.6834C169.506 30.0617 169.21 30.35 168.693 30.35H161.548C161.076 30.35 160.692 30.055 160.692 29.6834C160.692 29.3117 160.948 29.0167 161.42 28.9651C164.029 28.6701 163.816 26.7735 163.816 24.8752L163.601 5.01245C163.601 4.75913 163.215 4.71746 163.131 4.92912L158.124 14.7622C158.057 14.8832 157.956 14.9826 157.834 15.0486C157.711 15.1145 157.572 15.1441 157.432 15.1338C157.306 15.1356 157.181 15.106 157.069 15.0478C156.957 14.9895 156.861 14.9045 156.791 14.8005L151.143 5.69077C151.112 5.64262 151.066 5.60538 151.013 5.58433C150.959 5.56329 150.899 5.55951 150.843 5.57353C150.787 5.58756 150.737 5.61867 150.7 5.66246C150.662 5.70624 150.64 5.76047 150.636 5.81743L150.33 25.0002C150.33 26.3068 150.161 28.4584 152.085 28.9217C152.248 28.9597 152.392 29.0517 152.493 29.1823C152.594 29.3129 152.647 29.474 152.642 29.6384C152.642 30.06 152.256 30.355 151.742 30.305H146.059C145.551 30.3467 145.245 30.01 145.245 29.6384C145.24 29.4649 145.304 29.2964 145.425 29.1699C145.545 29.0433 145.712 28.969 145.888 28.9634C148.754 28.6301 148.712 26.9818 148.796 24.8735L149.182 5.5591C149.182 4.20914 149.013 2.4392 147.127 2.14421C146.789 2.05921 146.486 1.81088 146.486 1.47756C146.486 1.05591 146.872 0.760916 147.384 0.760916C147.856 0.802581 148.455 0.802581 148.925 0.802581C149.353 0.802581 149.909 0.802581 150.423 0.760916C150.589 0.739149 150.758 0.758194 150.914 0.816353C151.071 0.874513 151.211 0.969978 151.321 1.09424L157.782 11.9739C157.81 12.0055 157.844 12.0301 157.884 12.0457C157.923 12.0612 157.965 12.0671 158.007 12.063C158.049 12.059 158.09 12.0449 158.125 12.0222C158.16 11.9994 158.189 11.9685 158.21 11.9322L163.601 1.09924C163.729 0.887578 164.029 0.765915 164.372 0.765915C164.954 0.834241 165.54 0.862087 166.126 0.849246C166.553 0.849246 167.152 0.807581 167.624 0.765915C168.18 0.765915 168.522 1.06091 168.522 1.48256C168.521 1.64624 168.459 1.80399 168.349 1.92657C168.239 2.04915 168.088 2.12825 167.923 2.14921C165.955 2.4442 165.869 4.13081 165.869 5.52244L166.168 24.8752Z" fill="#BBB8B6"/>
<path d="M131.874 23.6169C132.302 23.6169 132.517 23.9119 132.431 24.2485C132.175 25.5568 131.575 28.4151 131.362 29.7317C131.276 30.1117 130.934 30.3633 130.42 30.3633C128.195 30.3217 127.468 30.28 125.242 30.28C123.017 30.28 120.622 30.3217 118.397 30.3633C117.927 30.3633 117.626 30.0684 117.626 29.6884C117.626 29.3934 117.841 29.0984 118.269 29.0217C120.323 28.7684 120.45 26.7868 120.45 24.9735V5.7791C120.45 4.13415 120.494 2.32087 118.355 2.06754C117.883 2.02588 117.678 1.73422 117.678 1.39256C117.678 1.01257 118.017 0.675918 118.534 0.725917C119.518 0.767582 120.715 0.767582 121.657 0.767582C122.599 0.767582 123.797 0.810914 124.781 0.725917C125.288 0.725917 125.636 1.02091 125.636 1.4009C125.636 1.73422 125.423 2.03421 124.96 2.07588C122.863 2.3292 122.863 4.14248 122.863 5.78743V25.2185C122.863 28.1718 123.592 29.1834 126.33 29.1834C130.309 29.1834 130.694 26.6951 131.293 24.0802C131.328 23.9527 131.404 23.8394 131.508 23.7562C131.612 23.6731 131.74 23.6244 131.874 23.6169Z" fill="#BBB8B6"/>
<path d="M106.717 0.590921L112.751 25.5135C113.089 27.0318 113.427 28.2984 115.489 28.8467C115.916 28.9734 116.087 29.2684 116.045 29.6067C116.045 29.9867 115.659 30.2817 115.145 30.2817H109.408C108.9 30.2817 108.594 29.9867 108.594 29.6067C108.591 29.4346 108.656 29.2679 108.777 29.1431C108.897 29.0183 109.062 28.9453 109.237 28.9401C109.836 28.8984 110.476 28.7301 110.691 28.2234C110.991 27.5068 110.476 25.6935 110.306 24.9335L109.284 20.667C109.262 20.5535 109.197 20.4521 109.104 20.3821C109.01 20.3121 108.894 20.2783 108.777 20.287H102.096C101.797 20.287 101.626 20.4137 101.589 20.667L100.52 25.0102C100.221 26.1485 100.013 27.3301 100.263 28.0101C100.432 28.5101 100.99 28.8117 101.761 28.8967C102.189 28.9801 102.437 29.2301 102.437 29.5634C102.437 29.985 102.099 30.28 101.582 30.28C101.025 30.2367 99.6997 30.2367 99.0572 30.2367C98.0307 30.2367 97.3898 30.2367 96.705 30.28C96.1486 30.28 95.8054 29.9467 95.7631 29.52C95.7631 29.1867 95.9778 28.8884 96.4057 28.7617C98.33 28.3817 98.6733 26.1885 99.0149 24.8402L105.091 0.590921C105.137 0.415393 105.243 0.260878 105.391 0.153411C105.539 0.0459452 105.72 -0.00790358 105.904 0.00093855C106.086 -0.00169451 106.265 0.0545448 106.411 0.161072C106.558 0.2676 106.666 0.418563 106.717 0.590921ZM105.518 4.89246L102.054 18.767C102.01 18.977 102.096 19.147 102.392 19.147H108.51C108.56 19.1529 108.611 19.1466 108.658 19.1288C108.705 19.111 108.747 19.0821 108.78 19.0447C108.814 19.0073 108.837 18.9625 108.849 18.9141C108.861 18.8657 108.86 18.8153 108.848 18.767L105.518 4.89246Z" fill="#BBB8B6"/>
<path d="M72.5778 0.590921L78.6113 25.5135C78.9495 27.0318 79.2961 28.2984 81.3507 28.8467C81.7785 28.9734 81.9493 29.2684 81.907 29.6067C81.907 29.9867 81.5215 30.2817 81.0074 30.2817H75.2749C74.7676 30.2817 74.4615 29.9867 74.4615 29.6067C74.4574 29.4347 74.5225 29.2681 74.6426 29.1432C74.7626 29.0183 74.928 28.9453 75.1024 28.9401C75.7027 28.8984 76.3436 28.7301 76.5584 28.2234C76.8577 27.5068 76.3436 25.6935 76.1728 24.9335L75.1464 20.667C75.1232 20.5536 75.0589 20.4525 74.9656 20.3826C74.8722 20.3126 74.7561 20.2786 74.6391 20.287H67.958C67.6586 20.287 67.4862 20.4137 67.4507 20.667L66.3802 25.0102C66.0809 26.1485 65.8729 27.3301 66.1249 28.0101C66.294 28.5101 66.852 28.8117 67.6214 28.8967C68.0493 28.9801 68.2978 29.2301 68.2978 29.5634C68.2978 29.985 67.9596 30.28 67.4422 30.28C66.8859 30.2367 65.5601 30.2367 64.9175 30.2367C63.8911 30.2367 63.2485 30.2367 62.5637 30.28C62.009 30.28 61.6657 29.9467 61.6235 29.52C61.6235 29.1867 61.8365 28.8884 62.2644 28.7617C64.1904 28.3817 64.532 26.1885 64.8753 24.8402L70.9527 0.590921C70.9988 0.415393 71.1048 0.260878 71.253 0.153411C71.4011 0.0459452 71.5824 -0.00790358 71.7661 0.00093855C71.9482 -0.00160523 72.1261 0.054697 72.2727 0.161238C72.4193 0.267779 72.5264 0.418697 72.5778 0.590921ZM71.3805 4.89246L67.914 18.767C67.8717 18.977 67.958 19.147 68.2522 19.147H74.3702C74.4204 19.1529 74.4712 19.1466 74.5183 19.1288C74.5654 19.111 74.6075 19.0821 74.6408 19.0447C74.674 19.0073 74.6976 18.9625 74.7094 18.9141C74.7212 18.8657 74.7208 18.8153 74.7084 18.767L71.3805 4.89246Z" fill="#BBB8B6"/>
<path d="M49.5328 23.1102C49.6618 23.1014 49.7896 23.1394 49.8921 23.2171C49.9946 23.2948 50.0647 23.4068 50.0891 23.5319C50.473 25.6402 51.2001 29.52 54.2811 29.52C57.6631 29.52 58.8604 26.4001 58.8604 23.9119C58.8604 19.442 56.3357 18.4304 52.8691 15.3938C50.5609 13.4105 49.4043 11.0006 49.4043 8.35068C49.4043 5.23078 50.517 0.00093855 55.8216 0.00093855C56.5065 0.00093855 59.2882 0.1676 59.4167 1.09757L59.8445 5.7791C59.8464 5.84525 59.8345 5.91109 59.8097 5.97259C59.7849 6.03408 59.7476 6.08993 59.7001 6.13673C59.6526 6.18353 59.5959 6.22029 59.5335 6.24477C59.4712 6.26924 59.4044 6.28092 59.3372 6.27908C59.222 6.27974 59.1098 6.24284 59.018 6.17412C58.9263 6.10539 58.8601 6.0087 58.8299 5.89909C58.6033 4.21748 58.0893 1.43423 55.3938 1.43423C52.0575 1.43423 51.1156 4.6008 51.1156 6.87406C51.1156 10.7973 53.6825 12.5672 56.8058 14.9288C59.6298 17.1638 60.9995 19.062 60.9995 22.3086C60.9995 25.5135 59.459 30.9967 54.0241 30.9967C53.1685 30.9967 49.4888 30.575 49.4888 29.31L48.9815 23.6586C48.9325 23.3636 49.1473 23.1102 49.5328 23.1102Z" fill="#BBB8B6"/>
<path d="M37.9799 0.590921L44.0134 25.5135C44.3516 27.0318 44.6982 28.2984 46.7528 28.8467C47.1806 28.9734 47.3514 29.2684 47.3091 29.6067C47.3091 29.9867 46.9236 30.2817 46.4095 30.2817H40.677C40.1697 30.2817 39.8637 29.9867 39.8637 29.6067C39.8596 29.4347 39.9246 29.2681 40.0447 29.1432C40.1648 29.0183 40.3301 28.9453 40.5045 28.9401C41.1049 28.8984 41.7457 28.7301 41.9605 28.2234C42.2598 27.5068 41.7457 25.6935 41.575 24.9335L40.5485 20.667C40.5254 20.5536 40.4611 20.4525 40.3677 20.3826C40.2743 20.3126 40.1582 20.2786 40.0412 20.287H33.3601C33.0608 20.287 32.8883 20.4137 32.8528 20.667L31.7824 25.0102C31.4831 26.1485 31.2751 27.3301 31.527 28.0101C31.6961 28.5101 32.2542 28.8117 33.0236 28.8967C33.4514 28.9801 33.7084 29.2301 33.7084 29.5634C33.7084 29.985 33.3702 30.28 32.8528 30.28C32.2964 30.2367 30.9707 30.2367 30.3281 30.2367C29.3017 30.2367 28.6591 30.2367 27.9742 30.28C27.4196 30.28 27.0763 29.9467 27.034 29.52C27.034 29.1867 27.2471 28.8884 27.6749 28.7617C29.5925 28.3817 29.9307 26.1885 30.2791 24.8335L36.3565 0.590921C36.4025 0.415685 36.5083 0.26139 36.6561 0.153955C36.8039 0.0465196 36.9848 -0.0075111 37.1682 0.00093855C37.3503 -0.00160523 37.5283 0.054697 37.6748 0.161238C37.8214 0.267779 37.9286 0.418697 37.9799 0.590921ZM36.7827 4.89246L33.3127 18.767C33.2705 18.977 33.3567 19.147 33.6509 19.147H39.769C39.8191 19.1529 39.8699 19.1466 39.917 19.1288C39.9642 19.111 40.0062 19.0821 40.0395 19.0447C40.0728 19.0073 40.0963 18.9625 40.1081 18.9141C40.1199 18.8657 40.1196 18.8153 40.1072 18.767L36.7827 4.89246Z" fill="#BBB8B6"/>
<path d="M25.3735 22.1836C25.4597 22.1901 25.5435 22.2144 25.6194 22.255C25.6954 22.2956 25.7618 22.3516 25.8144 22.4192C25.8669 22.4869 25.9043 22.5647 25.9242 22.6476C25.9441 22.7305 25.946 22.8166 25.9298 22.9002L25.1587 27.6668C25.0905 28.0318 24.9346 28.3755 24.7039 28.6689C24.4732 28.9624 24.1746 29.1971 23.833 29.3534C21.4757 30.4067 18.0937 31 15.4033 31C5.64794 31 0 24.2069 0 15.0988C0 6.11575 6.37507 0.00093855 15.2748 0.00093855C18.2713 0.00093855 21.4757 0.844246 24.3031 1.94088C24.6359 2.05665 24.927 2.26619 25.1401 2.5435C25.3532 2.82081 25.4791 3.15368 25.502 3.50083L25.9298 7.92903C25.9432 8.06474 25.9035 8.20036 25.8188 8.30819C25.7341 8.41601 25.6109 8.48791 25.4742 8.50918C25.3376 8.53046 25.1979 8.49951 25.0836 8.42266C24.9693 8.34581 24.8891 8.22886 24.8594 8.09569C23.8752 3.12084 20.1956 1.22423 15.2748 1.22423C6.9331 1.22423 2.56694 7.46571 2.56694 14.9722C2.56694 23.6169 7.83103 29.8584 16.1305 29.8584C21.1798 29.8584 23.6622 27.2851 24.7749 22.6469C24.8052 22.5136 24.8814 22.3946 24.9904 22.3102C25.0995 22.2258 25.2348 22.1811 25.3735 22.1836Z" fill="#BBB8B6"/>
</svg>
