<svg width="908" height="123" viewBox="0 0 908 123" fill="none" xmlns="http://www.w3.org/2000/svg">
<path d="M905.783 93.7057C906.092 93.6849 906.401 93.7327 906.688 93.8455C906.976 93.9582 907.234 94.1332 907.445 94.3575C907.655 94.5818 907.812 94.8499 907.905 95.1421C907.997 95.4344 908.023 95.7434 907.979 96.0466C906.798 101.231 904.602 112.777 903.593 117.968C903.42 119.469 901.898 120.474 900.042 120.474C891.09 120.309 888.219 120.143 879.434 120.143C870.822 120.143 861.87 120.309 853.251 120.474C852.874 120.498 852.495 120.448 852.138 120.326C851.78 120.204 851.45 120.013 851.168 119.764C850.885 119.514 850.655 119.212 850.492 118.874C850.328 118.537 850.233 118.17 850.214 117.796C850.227 117.122 850.494 116.477 850.962 115.988C851.43 115.499 852.065 115.2 852.744 115.151C860.181 113.974 860.515 107.784 860.515 100.761V22.2555C860.515 15.7287 861.022 9.03006 852.918 8.20347C852.206 8.18668 851.528 7.89913 851.025 7.40047C850.521 6.90182 850.231 6.23034 850.214 5.52533C850.215 5.13815 850.296 4.75526 850.451 4.39993C850.606 4.04459 850.833 3.72423 851.117 3.45829C851.401 3.19235 851.737 2.98639 852.104 2.85292C852.471 2.71945 852.861 2.66125 853.251 2.68187C860.855 3.0125 867.778 3.0125 875.889 3.0125C884.334 3.0125 892.946 2.84719 900.89 2.68187C902.579 2.68187 903.56 3.687 903.56 5.02277V27.1158C903.504 27.6438 903.245 28.1299 902.835 28.4726C902.426 28.8152 901.899 28.9877 901.364 28.9541C900.846 28.945 900.349 28.7558 899.958 28.4196C899.568 28.0835 899.309 27.6219 899.227 27.1158C898.56 17.0777 899.054 7.87284 883.686 7.87284H873.719C871.356 7.87284 870.001 9.19538 870.001 11.2189V54.3866C870.001 55.8877 871.016 57.0317 872.872 57.0317H885.876C893.813 57.0317 893.813 49.5064 893.813 44.3154C893.813 43.4822 894.655 42.6424 896.01 42.6424C897.532 42.6424 898.206 43.4822 898.206 44.3154V75.7721C898.206 76.6119 897.358 77.4451 896.01 77.4451C894.661 77.4451 893.813 76.6119 893.813 75.6068C893.98 70.0851 894.481 61.3828 885.702 61.3828H872.865C871.009 61.3828 869.994 62.5533 869.994 64.0279V99.1678C869.994 112.552 873.205 115.7 884.013 115.7C899.555 115.7 901.077 105.661 903.44 95.2861C903.594 94.7997 903.909 94.3789 904.334 94.0921C904.759 93.8052 905.27 93.669 905.783 93.7057Z" fill="#BBB8B6"/>
<path d="M836.649 115.263C838.511 115.428 839.519 116.434 839.519 117.776C839.499 118.15 839.404 118.516 839.24 118.853C839.076 119.191 838.846 119.493 838.564 119.742C838.281 119.991 837.952 120.182 837.595 120.304C837.237 120.426 836.859 120.477 836.482 120.454C834.479 120.282 832.43 120.282 830.567 120.282C828.564 120.282 825.841 120.282 823.644 120.454C823.019 120.544 822.38 120.449 821.809 120.18C821.238 119.912 820.759 119.483 820.433 118.946L793.73 67.2417C793.524 66.8138 793.18 66.4664 792.751 66.2543C792.323 66.0423 791.836 65.9779 791.367 66.0712C788.768 66.0718 786.173 65.9039 783.596 65.5687C783.339 65.5193 783.074 65.5247 782.819 65.5844C782.564 65.6441 782.325 65.7568 782.117 65.915C781.91 66.0731 781.739 66.2732 781.615 66.5019C781.491 66.7307 781.418 66.9828 781.4 67.2417V100.041C781.4 106.898 780.893 113.755 789.845 114.926C791.367 115.263 792.382 116.248 792.382 117.604C792.548 119.112 791.046 120.454 789.004 120.454C784.778 120.282 781.233 120.282 776.5 120.282C773.629 120.282 768.729 120.117 764.483 120.454C762.287 120.619 760.765 119.277 760.765 117.776C760.79 117.082 761.079 116.424 761.575 115.933C762.07 115.442 762.735 115.156 763.435 115.131C772.388 113.808 771.88 106.766 771.88 99.9217V22.5663C771.88 15.3716 772.388 9.34086 763.602 8.34234C761.746 8.17702 760.732 6.84126 760.932 5.49888C761.106 3.99118 762.454 2.99267 764.31 2.99267C770.058 3.15798 771.072 3.15798 777.488 3.15798C781.373 3.15798 786.948 2.82074 792.014 2.82074C813.637 2.82074 821.575 20.3907 821.575 33.4442C821.575 45.347 817.523 58.0368 804.178 63.2013C803.938 63.2909 803.719 63.4289 803.536 63.6066C803.353 63.7843 803.209 63.9977 803.114 64.2334C803.018 64.469 802.974 64.7218 802.982 64.9756C802.99 65.2293 803.052 65.4786 803.163 65.7075L826.682 109.775C828.711 113.59 832.089 114.926 836.649 115.263ZM792.054 61.7002C805.907 61.7002 811.481 46.6431 811.481 34.932C811.481 23.2209 807.936 6.98674 790.032 6.98674C788.28 7.00927 786.531 7.11963 784.791 7.31737C782.121 7.65462 781.413 9.16232 781.413 11.0006V53.9832C781.413 59.3792 786.821 61.7201 792.054 61.7201V61.7002Z" fill="#BBB8B6"/>
<path d="M718.073 2.4901L741.893 101.376C743.228 107.401 744.563 112.42 752.701 114.602C754.39 115.104 755.064 116.275 754.897 117.611C754.897 119.118 753.375 120.256 751.352 120.256H728.715C726.712 120.256 725.504 119.085 725.504 117.611C725.482 116.922 725.737 116.254 726.213 115.752C726.688 115.25 727.346 114.955 728.04 114.932C730.404 114.767 732.94 114.099 733.782 112.089C734.963 109.246 732.94 102.051 732.259 99.0422L728.207 82.1401C728.119 81.6891 727.865 81.2861 727.496 81.0081C727.127 80.73 726.667 80.5963 726.205 80.6324H699.849C698.669 80.6324 698.002 81.135 697.846 82.1401L693.613 99.3662C692.432 103.883 691.611 108.571 692.599 111.269C693.266 113.253 695.469 114.45 698.513 114.78C700.202 115.118 701.184 116.103 701.184 117.459C701.184 119.132 699.849 120.302 697.806 120.302C695.609 120.137 690.369 120.137 687.839 120.137C683.78 120.137 681.25 120.137 678.546 120.302C676.35 120.302 675.001 118.979 674.828 117.293C674.828 115.971 675.676 114.78 677.365 114.278C684.968 112.77 686.317 104.074 687.665 98.7181L711.638 2.4901C711.819 1.79242 712.237 1.17784 712.822 0.750146C713.407 0.322451 714.123 0.107852 714.849 0.142591C715.572 0.129636 716.279 0.352383 716.862 0.776549C717.444 1.20071 717.87 1.80279 718.073 2.4901ZM713.34 19.5575L699.662 74.6016C699.495 75.4414 699.829 76.1093 700.997 76.1093H725.156C725.355 76.1342 725.556 76.1105 725.743 76.0403C725.93 75.9701 726.097 75.8556 726.228 75.7068C726.36 75.558 726.453 75.3794 726.499 75.1867C726.545 74.994 726.542 74.7931 726.492 74.6016L713.34 19.5575Z" fill="#BBB8B6"/>
<path d="M656.002 98.6983C656.176 106.898 655.668 113.908 666.476 114.926C668.339 115.098 669.347 116.248 669.347 117.776C669.18 119.277 668.012 120.421 665.969 120.421H637.764C635.901 120.421 634.386 119.251 634.386 117.776C634.386 116.301 635.394 115.131 637.257 114.926C647.557 113.755 646.716 106.23 646.716 98.6983L645.868 19.8881C645.868 18.883 644.346 18.7177 644.012 19.5575L624.246 58.5724C623.982 59.0526 623.584 59.4472 623.1 59.7088C622.616 59.9704 622.065 60.0879 621.515 60.0471C621.015 60.0542 620.522 59.9368 620.08 59.7057C619.637 59.4746 619.261 59.1372 618.985 58.7245L596.688 22.5795C596.565 22.3885 596.384 22.2407 596.171 22.1572C595.959 22.0737 595.725 22.0587 595.503 22.1143C595.281 22.17 595.083 22.2934 594.936 22.4672C594.789 22.6409 594.701 22.856 594.685 23.0821L593.477 99.1943C593.477 104.379 592.809 112.916 600.406 114.754C601.047 114.905 601.616 115.27 602.016 115.788C602.416 116.306 602.623 116.945 602.603 117.597C602.603 119.27 601.081 120.441 599.051 120.242H576.614C574.611 120.408 573.403 119.072 573.403 117.597C573.381 116.909 573.636 116.241 574.112 115.738C574.587 115.236 575.245 114.942 575.94 114.919C587.255 113.597 587.088 107.057 587.422 98.6917L588.944 22.0571C588.944 16.7008 588.276 9.67811 580.833 8.50766C579.498 8.17041 578.303 7.18512 578.303 5.86258C578.303 4.18956 579.825 3.01912 581.848 3.01912C583.71 3.18443 586.073 3.18443 587.929 3.18443C589.618 3.18443 591.815 3.18443 593.844 3.01912C594.499 2.93275 595.166 3.00832 595.784 3.23908C596.403 3.46984 596.954 3.84862 597.389 4.34166L622.897 47.5094C623.005 47.6348 623.143 47.7325 623.297 47.794C623.452 47.8556 623.619 47.8793 623.785 47.8631C623.951 47.8468 624.11 47.7912 624.25 47.7008C624.389 47.6104 624.504 47.4881 624.586 47.3441L645.868 4.3615C646.376 3.52168 647.557 3.03895 648.912 3.03895C651.209 3.31005 653.523 3.42054 655.835 3.36959C657.524 3.36959 659.887 3.20427 661.75 3.03895C663.946 3.03895 665.295 4.2094 665.295 5.88242C665.291 6.53187 665.049 7.15777 664.614 7.64413C664.18 8.13049 663.582 8.44433 662.932 8.5275C655.161 9.69795 654.821 16.39 654.821 21.9116L656.002 98.6983Z" fill="#BBB8B6"/>
<path d="M520.617 93.7057C522.306 93.7057 523.154 94.8762 522.814 96.2119C521.806 101.403 519.436 112.744 518.595 117.968C518.254 119.475 516.906 120.474 514.876 120.474C506.091 120.309 503.22 120.143 494.435 120.143C485.65 120.143 476.197 120.309 467.411 120.474C465.555 120.474 464.367 119.303 464.367 117.796C464.367 116.625 465.215 115.455 466.904 115.151C475.015 114.146 475.516 106.283 475.516 99.0884V22.93C475.516 16.4032 475.689 9.20861 467.244 8.20347C465.382 8.03816 464.574 6.88093 464.574 5.52533C464.574 4.01763 465.909 2.68187 467.952 2.88025C471.837 3.04557 476.564 3.04557 480.282 3.04557C484.001 3.04557 488.727 3.2175 492.612 2.88025C494.615 2.88025 495.99 4.0507 495.99 5.55839C495.99 6.88093 495.149 8.07122 493.32 8.23654C485.042 9.24167 485.042 16.4363 485.042 22.963V100.061C485.042 111.778 487.919 115.792 498.727 115.792C514.436 115.792 515.958 105.919 518.321 95.5441C518.461 95.0381 518.758 94.5885 519.17 94.2587C519.582 93.9288 520.088 93.7354 520.617 93.7057Z" fill="#BBB8B6"/>
<path d="M421.302 2.34462L445.121 101.231C446.456 107.255 447.791 112.281 455.929 114.456C457.618 114.959 458.292 116.129 458.125 117.472C458.125 118.979 456.603 120.15 454.574 120.15H431.923C429.92 120.15 428.712 118.979 428.712 117.472C428.697 116.789 428.956 116.128 429.431 115.632C429.906 115.137 430.559 114.847 431.249 114.827C433.612 114.661 436.142 113.993 436.99 111.983C438.171 109.14 436.142 101.945 435.468 98.9297L431.436 82.0012C431.345 81.5509 431.092 81.1488 430.723 80.871C430.354 80.5932 429.895 80.4589 429.433 80.4935H403.057C401.875 80.4935 401.201 80.9961 401.054 82.0012L396.835 99.2339C395.653 103.75 394.832 108.439 395.82 111.137C396.488 113.121 398.691 114.318 401.735 114.655C403.424 114.985 404.405 115.977 404.405 117.3C404.405 118.973 403.07 120.143 401.027 120.143C398.831 119.971 393.597 119.971 391.06 119.971C387.008 119.971 384.478 119.971 381.774 120.143C379.578 120.143 378.223 118.821 378.056 117.128C378.056 115.805 378.904 114.622 380.593 114.119C388.19 112.611 389.545 103.909 390.894 98.5594L414.88 2.34462C415.061 1.64817 415.48 1.0351 416.065 0.608697C416.65 0.182299 417.365 -0.0313594 418.091 0.00372392C418.811 -0.00672339 419.514 0.21642 420.094 0.639093C420.674 1.06177 421.098 1.66075 421.302 2.34462ZM416.569 19.412L402.89 74.4627C402.716 75.2959 403.057 75.9704 404.225 75.9704H428.378C428.576 75.9937 428.777 75.9689 428.963 75.8982C429.149 75.8274 429.315 75.7129 429.446 75.5645C429.577 75.4161 429.67 75.2383 429.717 75.0463C429.764 74.8544 429.762 74.6541 429.713 74.4627L416.569 19.412Z" fill="#BBB8B6"/>
<path d="M286.524 2.34462L310.344 101.231C311.679 107.255 313.047 112.281 321.158 114.456C322.847 114.959 323.522 116.129 323.355 117.472C323.355 118.979 321.833 120.15 319.803 120.15H297.172C295.17 120.15 293.961 118.979 293.961 117.472C293.945 116.789 294.202 116.128 294.676 115.633C295.15 115.137 295.803 114.847 296.491 114.827C298.861 114.661 301.391 113.993 302.239 111.983C303.421 109.14 301.391 101.945 300.717 98.9297L296.665 82.0012C296.574 81.5515 296.32 81.1503 295.951 80.8728C295.582 80.5952 295.124 80.4604 294.662 80.4935H268.286C267.105 80.4935 266.424 80.9961 266.283 82.0012L262.058 99.2339C260.876 103.75 260.055 108.439 261.05 111.137C261.717 113.121 263.92 114.318 266.958 114.655C268.647 114.985 269.628 115.977 269.628 117.3C269.628 118.973 268.293 120.143 266.25 120.143C264.054 119.971 258.82 119.971 256.283 119.971C252.231 119.971 249.694 119.971 246.99 120.143C244.801 120.143 243.446 118.821 243.279 117.128C243.279 115.805 244.12 114.622 245.809 114.119C253.413 112.611 254.761 103.909 256.116 98.5594L280.109 2.34462C280.291 1.64817 280.71 1.0351 281.294 0.608697C281.879 0.182299 282.595 -0.0313594 283.32 0.00372392C284.039 -0.00636913 284.741 0.217023 285.32 0.639751C285.899 1.06248 286.322 1.66128 286.524 2.34462ZM281.798 19.412L268.113 74.4627C267.946 75.2959 268.286 75.9704 269.448 75.9704H293.601C293.799 75.9937 293.999 75.9689 294.185 75.8982C294.371 75.8274 294.537 75.7129 294.669 75.5645C294.8 75.4161 294.893 75.2383 294.94 75.0463C294.986 74.8544 294.985 74.6541 294.936 74.4627L281.798 19.412Z" fill="#BBB8B6"/>
<path d="M195.547 91.6955C196.056 91.6605 196.561 91.8113 196.965 92.1195C197.37 92.4277 197.647 92.872 197.743 93.3685C199.259 101.734 202.129 117.128 214.292 117.128C227.644 117.128 232.37 104.749 232.37 94.8762C232.37 77.1409 222.404 73.127 208.718 61.0786C199.606 53.2095 195.04 43.6476 195.04 33.1334C195.04 20.7544 199.432 0.00372393 220.374 0.00372393C223.078 0.00372393 234.059 0.664994 234.567 4.35488L236.256 22.93C236.263 23.1925 236.216 23.4537 236.118 23.6977C236.02 23.9417 235.873 24.1633 235.686 24.349C235.498 24.5347 235.274 24.6805 235.028 24.7776C234.782 24.8747 234.518 24.9211 234.253 24.9138C233.798 24.9164 233.355 24.77 232.993 24.4973C232.631 24.2246 232.37 23.841 232.25 23.4061C231.356 16.7339 229.326 5.69065 218.685 5.69065C205.514 5.69065 201.795 18.2548 201.795 27.2745C201.795 42.8408 211.929 49.8635 224.259 59.2337C235.408 68.1013 240.815 75.6332 240.815 88.5147C240.815 101.231 234.734 122.987 213.278 122.987C209.9 122.987 195.373 121.314 195.373 116.295L193.371 93.871C193.177 92.7006 194.025 91.6955 195.547 91.6955Z" fill="#BBB8B6"/>
<path d="M149.938 2.34462L173.757 101.231C175.092 107.255 176.461 112.281 184.572 114.456C186.261 114.959 186.935 116.129 186.768 117.472C186.768 118.979 185.246 120.15 183.217 120.15H160.586C158.583 120.15 157.375 118.979 157.375 117.472C157.359 116.789 157.616 116.128 158.09 115.633C158.564 115.137 159.216 114.847 159.905 114.827C162.275 114.661 164.805 113.993 165.653 111.983C166.834 109.14 164.805 101.945 164.131 98.9298L160.078 82.0012C159.987 81.5516 159.733 81.1503 159.365 80.8728C158.996 80.5952 158.538 80.4604 158.076 80.4935H131.7C130.518 80.4935 129.837 80.9961 129.697 82.0012L125.471 99.2339C124.29 103.75 123.469 108.439 124.463 111.137C125.131 113.121 127.334 114.318 130.371 114.655C132.06 114.985 133.075 115.977 133.075 117.3C133.075 118.973 131.74 120.143 129.697 120.143C127.501 119.971 122.267 119.971 119.73 119.971C115.678 119.971 113.141 119.971 110.437 120.143C108.248 120.143 106.893 118.821 106.726 117.128C106.726 115.805 107.567 114.622 109.256 114.119C116.826 112.611 118.161 103.909 119.536 98.533L143.529 2.34462C143.711 1.64933 144.129 1.03713 144.712 0.610853C145.296 0.184578 146.009 -0.0298021 146.734 0.00372393C147.453 -0.00636913 148.155 0.217023 148.734 0.639751C149.312 1.06248 149.735 1.66128 149.938 2.34462ZM145.212 19.412L131.513 74.4628C131.346 75.296 131.686 75.9705 132.848 75.9705H157.001C157.199 75.9937 157.4 75.9689 157.586 75.8982C157.772 75.8274 157.938 75.7129 158.069 75.5645C158.2 75.4161 158.293 75.2383 158.34 75.0463C158.386 74.8544 158.385 74.6541 158.336 74.4628L145.212 19.412Z" fill="#BBB8B6"/>
<path d="M100.17 88.0188C100.51 88.0445 100.841 88.141 101.141 88.3021C101.441 88.4632 101.703 88.6852 101.911 88.9537C102.118 89.2221 102.266 89.5308 102.344 89.8597C102.423 90.1886 102.43 90.5303 102.366 90.8623L99.3222 109.775C99.053 111.223 98.4373 112.587 97.5267 113.751C96.6161 114.915 95.4371 115.846 94.0884 116.467C84.7824 120.646 71.4308 123 60.8097 123C22.2971 123 0 96.0466 0 59.9082C0 24.2657 25.1677 0.00372393 60.3023 0.00372393C72.1318 0.00372393 84.7824 3.34975 95.9443 7.70091C97.2584 8.16026 98.4073 8.99165 99.2487 10.0919C100.09 11.1922 100.587 12.513 100.677 13.8904L102.366 31.4603C102.419 31.9988 102.262 32.5369 101.928 32.9647C101.594 33.3926 101.107 33.6778 100.568 33.7622C100.028 33.8466 99.4768 33.7239 99.0257 33.4189C98.5745 33.114 98.258 32.65 98.1406 32.1216C94.2553 12.3827 79.7288 4.85745 60.3023 4.85745C27.3707 4.85745 10.1338 29.622 10.1338 59.4056C10.1338 93.7057 30.9155 118.47 63.6803 118.47C83.6141 118.47 93.4142 108.26 97.8068 89.8571C97.9267 89.328 98.2273 88.856 98.6579 88.5211C99.0885 88.1861 99.6227 88.0087 100.17 88.0188Z" fill="#BBB8B6"/>
</svg>
