<svg width="17" height="17" viewBox="0 0 17 17" fill="none" xmlns="http://www.w3.org/2000/svg">
<path fill-rule="evenodd" clip-rule="evenodd" d="M2.70182 3.5026C2.15258 3.5026 1.70182 3.95337 1.70182 4.5026V12.5026C1.70182 13.0518 2.15258 13.5026 2.70182 13.5026H13.3685C13.9177 13.5026 14.3685 13.0518 14.3685 12.5026V4.5026C14.3685 3.95337 13.9177 3.5026 13.3685 3.5026H2.70182ZM1.03516 4.5026C1.03516 3.58518 1.78439 2.83594 2.70182 2.83594H13.3685C14.2859 2.83594 15.0352 3.58518 15.0352 4.5026V12.5026C15.0352 13.42 14.2859 14.1693 13.3685 14.1693H2.70182C1.78439 14.1693 1.03516 13.42 1.03516 12.5026V4.5026Z" fill="#211D1D"/>
<path fill-rule="evenodd" clip-rule="evenodd" d="M1.09544 4.30627C1.20101 4.15545 1.40886 4.11878 1.55967 4.22435L8.03518 8.75721L14.5107 4.22435C14.6615 4.11878 14.8694 4.15545 14.9749 4.30627C15.0805 4.45709 15.0438 4.66493 14.893 4.7705L8.22634 9.43717C8.11157 9.51751 7.9588 9.51751 7.84403 9.43717L1.17736 4.7705C1.02655 4.66493 0.989869 4.45709 1.09544 4.30627Z" fill="#211D1D"/>
</svg>
