<svg width="57" height="31" viewBox="0 0 57 31" fill="none" xmlns="http://www.w3.org/2000/svg">
<path d="M1.74356 0.283253C1.47007 0.569195 1.41537 0.78915 0.988717 3.39562C0.529245 6.18905 0.463606 6.73894 0.594884 7.07987C0.693342 7.33282 1.15281 7.54177 1.84202 7.62976C4.29254 7.93769 9.19357 9.85131 12.4974 11.7759C13.8321 12.5458 15.7465 13.8985 16.8843 14.8663C20.2318 17.6927 22.2557 20.8271 23.0215 24.4123C23.2512 25.4901 23.2512 27.7887 23.0215 29.0864C22.8246 30.1972 22.8793 30.5271 23.3059 30.824C23.5247 30.978 24.1374 31 28.5352 31C32.933 31 33.5456 30.978 33.7644 30.824C34.191 30.5271 34.2457 30.1972 34.0488 29.0864C33.8191 27.7887 33.8191 25.4901 34.0488 24.4123C34.4974 22.3558 35.3725 20.3872 36.5978 18.6715C39.5515 14.5583 45.0652 10.8521 51.5306 8.60856C53.0841 8.06967 54.3312 7.73973 55.2283 7.62976C55.9175 7.54177 56.377 7.33282 56.4754 7.07987C56.6067 6.73894 56.5411 6.18905 56.0816 3.39562C55.6549 0.78915 55.6002 0.569195 55.3267 0.283253C54.9548 -0.0906696 54.7141 -0.0906696 53.4998 0.261257C50.4038 1.15208 43.7087 2.26285 36.5759 3.05469C29.3556 3.85752 27.7147 3.85752 20.4944 3.05469C13.3616 2.26285 6.66648 1.15208 3.57051 0.261257C2.35619 -0.0906696 2.11552 -0.0906696 1.74356 0.283253ZM12.3442 8.68554C15.0683 9.32341 17.5406 10.3462 19.4332 11.6109C20.5272 12.3478 22.0697 13.8435 22.6714 14.7563C24.0498 16.8679 24.7172 19.1774 24.6953 21.6849L24.6843 22.6967L24.4765 22.0368C24.1045 20.8711 22.8902 18.5725 21.9932 17.3628C19.5317 14.0525 16.2279 11.391 11.5238 8.92749C10.0797 8.16865 10.1016 8.16865 12.3442 8.68554ZM45.5466 8.92749C38.7529 12.4798 34.3442 16.9339 32.6266 21.9818L32.386 22.6967L32.375 21.6849C32.3422 18.3526 33.5018 15.4382 35.7554 13.1836C37.8012 11.127 40.7112 9.66434 44.562 8.72953C45.9623 8.3886 46.4436 8.28962 46.7499 8.25663C46.8156 8.24563 46.2686 8.55357 45.5466 8.92749Z" fill="#211D1D"/>
</svg>
