<svg width="53" height="30" viewBox="0 0 53 30" fill="none" xmlns="http://www.w3.org/2000/svg">
<path d="M2.58193 0.207007C2.46276 0.326853 2.34359 0.588336 2.30026 0.784448C2.13776 1.7759 0.621094 10.6082 0.621094 11.0222C0.621094 11.2837 0.688851 11.5652 0.751094 11.665C15.99 36.1113 37.2522 36.112 52.4911 11.665C52.5561 11.567 52.6211 11.2837 52.6211 11.0222C52.6211 10.6082 51.1044 1.7759 50.9419 0.784448C50.8444 0.228797 50.5411 0 49.9236 0C49.6311 0 47.8653 0.141636 46.0019 0.326853C34.7028 1.40547 28.6903 1.76501 24.3244 1.61248C20.9986 1.50353 14.3794 1.00235 7.25109 0.326853C3.17776 -0.0653707 2.86359 -0.0762658 2.58193 0.207007ZM8.09609 12.1989C11.4003 12.6456 14.4228 14.1273 16.8711 16.5025C18.7128 18.2893 19.8719 20.0978 20.5869 22.3204C21.0438 23.7065 20.5869 27.2835 20.5869 27.2835C20.5869 27.2835 10.3278 23.2332 3.29693 12.0246C4.90513 12.0246 6.49713 12.0028 8.09609 12.1989ZM32.6553 22.3204C34.4969 16.6768 39.9678 12.5475 46.2294 12.0899C47.3907 11.9166 49.4488 12.0061 49.7322 12.4035C43.0678 23.0998 32.6553 27.2835 32.6553 27.2835C32.6553 27.2835 31.7792 24.6232 32.6553 22.3204Z" fill="black"/>
</svg>
