<svg width="53" height="31" viewBox="0 0 53 31" fill="none" xmlns="http://www.w3.org/2000/svg">
<path d="M1.99599 0.707007C1.87682 0.826853 1.75766 1.08834 1.71432 1.28445C1.55182 2.2759 0.0351562 11.1082 0.0351562 11.5222C0.0351562 11.7837 0.102914 12.0652 0.165156 12.165C15.404 36.6113 36.6663 36.612 51.9052 12.165C51.9702 12.067 52.0352 11.7837 52.0352 11.5222C52.0352 11.1082 50.5185 2.2759 50.356 1.28445C50.2585 0.728797 49.9552 0.5 49.3377 0.5C49.0452 0.5 47.2793 0.641636 45.416 0.826853C34.1168 1.90547 28.1043 2.26501 23.7385 2.11248C20.4127 2.00353 13.7935 1.50235 6.66516 0.826853C2.59182 0.434629 2.27766 0.423734 1.99599 0.707007ZM7.61849 2.78797C11.161 3.10393 14.4977 3.38721 18.9935 3.73585C22.3735 3.99733 29.6643 3.99733 33.131 3.73585C36.4893 3.48526 42.7943 2.94051 46.001 2.63544C47.4418 2.49381 48.6227 2.38486 48.6335 2.39575C48.6552 2.41754 50.0852 10.4654 50.0852 10.5743C50.0852 10.6724 49.251 10.716 47.1385 10.7596C44.6902 10.8031 44.0077 10.8467 43.1627 11.0319C37.7677 12.2304 33.456 15.5098 31.1268 20.1838C30.6703 21.1022 30.3009 22.0628 30.0298 23.0323C29.5552 24.7295 29.7252 26.5196 30.0796 28.2462C27.8733 28.8306 24.4215 28.8528 22.2218 28.2438C22.4235 26.5142 22.517 24.7478 22.0573 23.0688C20.631 17.8592 16.4388 13.4295 11.0093 11.6094C8.95099 10.923 8.17099 10.814 4.94266 10.7596C3.31766 10.7269 1.98516 10.6288 1.98516 10.6288C1.98516 10.6288 2.8684 4.8452 3.44766 2.35217L3.77266 2.40665C3.94599 2.43933 5.67932 2.60276 7.61849 2.78797ZM7.51016 12.6989C10.8143 13.1456 13.8368 14.6273 16.2852 17.0025C18.1268 18.7893 19.286 20.5978 20.001 22.8204C20.4579 24.2065 20.001 27.7835 20.001 27.7835C20.001 27.7835 9.74182 23.7332 2.71099 12.5246C4.31919 12.5246 5.91119 12.5028 7.51016 12.6989ZM32.0693 22.8204C33.911 17.1768 39.3818 13.0475 45.6435 12.5899C46.8047 12.4166 48.8629 12.5061 49.1463 12.9035C42.4818 23.5998 32.0693 27.7835 32.0693 27.7835C32.0693 27.7835 31.1933 25.1232 32.0693 22.8204Z" fill="#211D1D"/>
</svg>
