<svg width="54" height="31" viewBox="0 0 54 31" fill="none" xmlns="http://www.w3.org/2000/svg">
<path d="M0.621094 2.48659L0.629395 4.59962C0.631058 5.02278 0.910385 5.39619 1.31981 5.53155C7.36675 7.53086 13.1062 10.5263 17.3416 15.3268C20.9673 19.4309 22.9742 24.2783 23.2071 29.5135L23.2317 30.0636C23.2551 30.5873 23.6955 31 24.2307 31H30.1218C30.6078 31 31.0018 30.6142 31.0018 30.1382C31.0018 28.2316 31.4786 25.4632 32.155 23.4488C33.9401 18.0952 37.7433 13.4955 43.2872 9.95157C46.2801 8.04879 49.5059 6.56397 52.9039 5.52156C53.3277 5.39154 53.6211 5.00997 53.6211 4.57504V0.99633C53.6211 0.338863 52.9726 -0.131728 52.3298 0.058031C45.4749 2.08154 38.5538 3.96072 31.4454 4.89952C29.3941 5.16882 24.7816 5.16882 22.7968 4.89952C15.679 3.94399 8.77691 2.04741 1.90866 0.0415499C1.26676 -0.145916 0.621094 0.324459 0.621094 0.980393V2.48659Z" fill="black"/>
</svg>
