<svg width="57" height="31" viewBox="0 0 57 31" fill="none" xmlns="http://www.w3.org/2000/svg">
<path d="M53.5858 0.261197C54.7998 -0.0906091 55.0408 -0.0906885 55.4128 0.283193C55.6861 0.569043 55.741 0.789666 56.1676 3.39556C56.627 6.18844 56.6926 6.73888 56.5614 7.07982L56.5386 7.12656C56.4047 7.35835 55.9605 7.54716 55.3143 7.62971L54.9615 7.68103C54.1006 7.82519 52.9759 8.13699 51.6166 8.60851C45.1513 10.852 39.6376 14.5584 36.6838 18.6715C35.4585 20.3871 34.5833 22.3558 34.1348 24.4123C33.9051 25.4901 33.9051 27.7886 34.1348 29.0864C34.3317 30.1969 34.2767 30.5272 33.8504 30.824C33.6316 30.978 33.0185 31 28.6211 31V29.4044C30.6563 29.4044 31.853 29.398 32.574 29.3787L32.5722 29.3659C32.4348 28.5898 32.3753 27.5883 32.3753 26.6669C28.319 15.9099 35.4974 8.23624 48.1103 7.21651C50.0824 7.05706 52.0307 6.68103 53.9622 6.2518C54.2969 6.17741 54.6341 6.1146 54.9742 6.06711C54.9106 5.57685 54.7951 4.83354 54.6014 3.65585C54.446 2.70637 54.3453 2.11154 54.2705 1.72482L54.0252 1.79447L54.0225 1.79539C50.9906 2.66776 44.8161 3.70797 38.1707 4.48801L36.836 4.64015C33.2256 5.04159 30.9327 5.25233 28.6211 5.25236C26.8872 5.25236 25.1635 5.13356 22.8868 4.90501L20.4053 4.64015C13.2629 3.84722 6.45397 2.7259 3.21977 1.79539L3.21613 1.79447C3.1255 1.76821 3.04378 1.74533 2.96998 1.72482C2.89516 2.11155 2.79536 2.7056 2.63996 3.65493C2.44635 4.83199 2.32982 5.57593 2.26618 6.06619C2.87772 6.15296 3.70091 6.3548 4.43757 6.55573C5.62366 6.87923 6.84715 7.0673 8.07504 7.12849C21.3308 7.78916 29.2257 15.1055 24.866 26.6669C24.866 27.4733 24.8209 28.341 24.7174 29.0653L24.6691 29.3659C24.6684 29.3701 24.6671 29.3746 24.6664 29.3787C25.3874 29.398 26.5848 29.4044 28.6211 29.4044V31L25.9792 30.9945C23.9423 30.9811 23.5561 30.9394 23.3919 30.824C23.0185 30.5642 22.9298 30.2792 23.0455 29.4676L23.1075 29.0864C23.3372 27.7886 23.3372 25.4901 23.1075 24.4123C22.3895 21.0511 20.5655 18.0861 17.5819 15.3996L16.9702 14.8663C15.9746 14.0194 14.3837 12.8781 13.1075 12.0902L12.5833 11.7759C9.48602 9.97156 4.9845 8.1768 2.41478 7.70578L1.92796 7.62971C1.28154 7.54719 0.836615 7.35841 0.702701 7.12656L0.680822 7.07982C0.549544 6.73889 0.615183 6.189 1.07466 3.39556C1.44794 1.11515 1.53611 0.66155 1.7356 0.392254L1.8295 0.283193C2.20131 -0.090479 2.44241 -0.0906527 3.65645 0.261197C6.7526 1.152 13.4479 2.26283 20.5804 3.05463C26.8976 3.75705 28.9438 3.84538 34.1931 3.31858L36.6619 3.05463C43.3485 2.31231 49.6505 1.28966 52.9631 0.430746L53.5858 0.261197ZM9.48416 8.41695C15.0853 10.458 22.1714 15.8228 24.4207 22.9633C26.7545 13.5786 15.5521 8.88619 9.48416 8.41695ZM32.8224 22.9633C35.6351 17.0224 36.6619 14.3292 46.8359 8.6855C39.8239 9.35543 30.5953 15.0853 32.8224 22.9633Z" fill="black"/>
</svg>
