<svg width="24" height="24" viewBox="0 0 24 24" fill="none" xmlns="http://www.w3.org/2000/svg">
<path fill-rule="evenodd" clip-rule="evenodd" d="M4 11C4 7.13401 7.13401 4 11 4C14.866 4 18 7.13401 18 11C18 14.866 14.866 18 11 18C7.13401 18 4 14.866 4 11ZM11 4.875C7.61726 4.875 4.875 7.61726 4.875 11C4.875 14.3827 7.61726 17.125 11 17.125C14.3827 17.125 17.125 14.3827 17.125 11C17.125 7.61726 14.3827 4.875 11 4.875Z" fill="#211D1D"/>
<path fill-rule="evenodd" clip-rule="evenodd" d="M15.3197 15.5028C15.5077 15.3116 15.8125 15.3116 16.0005 15.5028L19.8594 19.1645C20.0474 19.3558 20.0474 19.6658 19.8594 19.857C19.6714 20.0482 19.3666 20.0482 19.1786 19.857L15.3197 16.1952C15.1317 16.004 15.1317 15.694 15.3197 15.5028Z" fill="#211D1D"/>
</svg>
