<svg width="24" height="25" viewBox="0 0 24 25" fill="none" xmlns="http://www.w3.org/2000/svg">
<path fill-rule="evenodd" clip-rule="evenodd" d="M4 14C4.27614 14 4.5 14.2239 4.5 14.5V21.5C4.5 21.7761 4.27614 22 4 22C3.72386 22 3.5 21.7761 3.5 21.5V14.5C3.5 14.2239 3.72386 14 4 14Z" fill="#211D1D"/>
<path fill-rule="evenodd" clip-rule="evenodd" d="M4 3C4.27614 3 4.5 3.22386 4.5 3.5V10.5C4.5 10.7761 4.27614 11 4 11C3.72386 11 3.5 10.7761 3.5 10.5V3.5C3.5 3.22386 3.72386 3 4 3Z" fill="#211D1D"/>
<path fill-rule="evenodd" clip-rule="evenodd" d="M12 12C12.2761 12 12.5 12.2239 12.5 12.5V21.5C12.5 21.7761 12.2761 22 12 22C11.7239 22 11.5 21.7761 11.5 21.5V12.5C11.5 12.2239 11.7239 12 12 12Z" fill="#211D1D"/>
<path fill-rule="evenodd" clip-rule="evenodd" d="M12 3C12.2761 3 12.5 3.22386 12.5 3.5V8.5C12.5 8.77614 12.2761 9 12 9C11.7239 9 11.5 8.77614 11.5 8.5V3.5C11.5 3.22386 11.7239 3 12 3Z" fill="#211D1D"/>
<path fill-rule="evenodd" clip-rule="evenodd" d="M20 16C20.2761 16 20.5 16.2239 20.5 16.5V21.5C20.5 21.7761 20.2761 22 20 22C19.7239 22 19.5 21.7761 19.5 21.5V16.5C19.5 16.2239 19.7239 16 20 16Z" fill="#211D1D"/>
<path fill-rule="evenodd" clip-rule="evenodd" d="M20 3C20.2761 3 20.5 3.22386 20.5 3.5V12.5C20.5 12.7761 20.2761 13 20 13C19.7239 13 19.5 12.7761 19.5 12.5V3.5C19.5 3.22386 19.7239 3 20 3Z" fill="#211D1D"/>
<path fill-rule="evenodd" clip-rule="evenodd" d="M0.5 14.5C0.5 14.2239 0.723858 14 1 14H7C7.27614 14 7.5 14.2239 7.5 14.5C7.5 14.7761 7.27614 15 7 15H1C0.723858 15 0.5 14.7761 0.5 14.5Z" fill="#211D1D"/>
<path fill-rule="evenodd" clip-rule="evenodd" d="M8.5 8.5C8.5 8.22386 8.72386 8 9 8H15C15.2761 8 15.5 8.22386 15.5 8.5C15.5 8.77614 15.2761 9 15 9H9C8.72386 9 8.5 8.77614 8.5 8.5Z" fill="#211D1D"/>
<path fill-rule="evenodd" clip-rule="evenodd" d="M16.5 16.5C16.5 16.2239 16.7239 16 17 16H23C23.2761 16 23.5 16.2239 23.5 16.5C23.5 16.7761 23.2761 17 23 17H17C16.7239 17 16.5 16.7761 16.5 16.5Z" fill="#211D1D"/>
</svg>
