<svg width="22" height="21" viewBox="0 0 22 21" fill="none" xmlns="http://www.w3.org/2000/svg">
<path d="M16.9785 20.5C17.1258 20.5 17.2475 20.4731 17.3115 20.4443L17.3135 20.4434C17.4424 20.3861 17.5774 20.2636 17.6738 20.0967C17.7711 19.9283 17.802 19.7626 17.7861 19.6475L17.7852 19.6416C17.7884 19.6677 17.7914 19.6714 17.7764 19.6152C17.7652 19.5736 17.7483 19.5155 17.7266 19.4414C17.6832 19.2935 17.6223 19.0909 17.5469 18.8477C17.3962 18.3618 17.1919 17.7198 16.9717 17.0391C16.7477 16.3542 16.5404 15.703 16.3867 15.2051C16.31 14.9565 16.2465 14.7445 16.2002 14.585C16.1602 14.4469 16.1196 14.3016 16.1084 14.2236H16.1074L16.1064 14.2139C16.0659 13.8805 16.121 13.5179 16.2285 13.1934C16.3364 12.8677 16.5107 12.5407 16.7441 12.2852C16.785 12.24 16.838 12.1947 16.8721 12.166C16.9188 12.1266 16.9782 12.0778 17.0469 12.0234C17.1845 11.9145 17.3694 11.7728 17.5869 11.6084C18.0232 11.2787 18.5993 10.853 19.21 10.4111C20.2934 9.62616 20.8324 9.23379 21.1211 9.00293C21.2649 8.88791 21.3245 8.82995 21.3535 8.79688L21.4102 8.70605C21.6277 8.2769 21.4302 7.7825 21.0488 7.61523L20.9697 7.58594C20.9607 7.58426 20.9257 7.57864 20.8447 7.57227C20.7446 7.5644 20.5976 7.55786 20.3809 7.55273C19.9479 7.5425 19.2639 7.53809 18.1738 7.53809C16.8999 7.53809 16.2078 7.53759 15.7988 7.52441C15.3784 7.51086 15.2121 7.48344 15.0039 7.41895C14.3371 7.21524 13.7792 6.76191 13.4688 6.15527L13.4629 6.14551C13.4326 6.08276 13.3842 5.95019 13.333 5.80762C13.2764 5.64989 13.2032 5.43928 13.1182 5.19141L12.5059 3.35742C12.2238 2.49416 12.0135 1.86406 11.8623 1.43652C11.7865 1.22219 11.7269 1.06414 11.6826 0.955078C11.6604 0.900343 11.6441 0.863135 11.6328 0.839844C11.6323 0.838741 11.6313 0.837904 11.6309 0.836914C11.5121 0.682694 11.326 0.566807 11.1758 0.535156H11.1738C11.0182 0.502085 10.9856 0.499619 10.9658 0.5C10.9474 0.500391 10.9158 0.503486 10.7637 0.543945H10.7627C10.6268 0.579727 10.4641 0.685524 10.3428 0.839844V0.84082C10.3313 0.864971 10.3144 0.903222 10.292 0.958984C10.2473 1.0704 10.1875 1.23198 10.1113 1.44824C10.0353 1.66404 9.94425 1.92976 9.83789 2.24805L9.47168 3.3623C9.24817 4.04556 9.03413 4.6918 8.86914 5.18164C8.78673 5.42629 8.71577 5.63359 8.66211 5.78711C8.61484 5.92234 8.56786 6.05412 8.53906 6.11426V6.11523C8.24695 6.72291 7.63761 7.21587 6.97266 7.41895H6.97168C6.76408 7.48315 6.59746 7.51089 6.17773 7.52441C5.76875 7.53758 5.07738 7.53809 3.80371 7.53809C2.96106 7.53809 2.27061 7.54326 1.77832 7.55176C1.53219 7.55601 1.33816 7.56167 1.2002 7.56738C1.1308 7.57026 1.07841 7.57249 1.04297 7.5752C1.03899 7.5755 1.03542 7.5759 1.03223 7.57617C0.841607 7.63895 0.654535 7.7948 0.572266 7.95312L0.571289 7.95508L0.515625 8.06836C0.506946 8.08951 0.505933 8.09778 0.504883 8.10352C0.50005 8.13003 0.497152 8.17828 0.504883 8.36328V8.36621C0.512155 8.56777 0.514541 8.60936 0.526367 8.64746C0.529905 8.65894 0.542854 8.70277 0.65625 8.81445C0.787046 8.94325 0.991645 9.10697 1.32031 9.35254L2.73242 10.3818C3.32305 10.8088 3.88744 11.2237 4.32031 11.5488C4.53656 11.7112 4.72165 11.8526 4.86133 11.9619C4.98583 12.0594 5.10928 12.1578 5.16992 12.2207L5.16895 12.2217C5.42061 12.4799 5.61245 12.8115 5.73242 13.1484C5.85227 13.4851 5.91387 13.8625 5.87012 14.2148L5.86914 14.2236L5.83398 14.3818C5.81736 14.4451 5.79738 14.5159 5.77734 14.585C5.73106 14.7446 5.6666 14.9564 5.58984 15.2051C5.43614 15.703 5.22891 16.3542 5.00488 17.0391C4.78467 17.7197 4.58128 18.3619 4.43066 18.8477C4.35521 19.091 4.29332 19.2935 4.25 19.4414C4.22832 19.5154 4.21232 19.5736 4.20117 19.6152C4.18615 19.6714 4.18814 19.6677 4.19141 19.6416V19.6475L4.18848 19.7432C4.1951 19.846 4.23078 19.9705 4.30371 20.0967C4.40024 20.2637 4.5351 20.3862 4.66406 20.4434L4.66602 20.4443C4.73008 20.4731 4.85172 20.5 4.99902 20.5C5.14346 20.5 5.25062 20.4742 5.2998 20.4521C5.31274 20.4433 5.36795 20.4076 5.48438 20.3281C5.61355 20.24 5.78952 20.1178 6 19.9697L7.55957 18.8564C9.66695 17.3309 10.0166 17.0859 10.5879 16.918L10.5889 16.917C10.7025 16.884 10.8376 16.8457 10.9883 16.8457C11.1387 16.8458 11.2714 16.8849 11.3828 16.918L11.3838 16.917C11.9607 17.0848 12.31 17.3322 14.417 18.8574C15.0021 19.2797 15.557 19.674 15.9775 19.9697C16.1879 20.1177 16.3641 20.24 16.4932 20.3281C16.6065 20.4055 16.6611 20.4422 16.6758 20.4521C16.7244 20.4743 16.8327 20.5 16.9785 20.5Z" stroke="#211D1D"/>
</svg>
