<svg width="22" height="21" viewBox="0 0 22 21" fill="none" xmlns="http://www.w3.org/2000/svg">
<path d="M10.6352 0.0606956C10.3751 0.1292 10.115 0.310251 9.9334 0.550018C9.84506 0.662561 9.5506 1.50419 8.99603 3.20704C8.54943 4.57224 8.14209 5.78576 8.08811 5.89831C7.86236 6.36805 7.37159 6.77419 6.82684 6.94056C6.52747 7.03353 6.36061 7.03843 3.80371 7.03843C2.11547 7.03843 1.03087 7.058 0.917995 7.08736C0.594088 7.18033 0.279997 7.42988 0.127859 7.72348C0.000259429 7.96814 -0.00955592 8.03175 0.00516711 8.38406C0.0297055 9.06422 -0.0291865 9.00061 2.43937 10.7866C3.61722 11.6381 4.68709 12.4405 4.80978 12.5678C5.19749 12.9641 5.43796 13.6394 5.37416 14.1532C5.35453 14.2902 4.97664 15.5184 4.53004 16.8836C4.08835 18.2488 3.71046 19.4623 3.69574 19.5797C3.62703 20.0789 3.97548 20.6856 4.46134 20.9009C4.7558 21.033 5.24656 21.033 5.52139 20.9009C5.62936 20.8471 6.67961 20.1082 7.85254 19.2617C10.0021 17.7056 10.2622 17.5344 10.7284 17.3974C10.964 17.3289 11.0131 17.3289 11.2437 17.3974C11.7149 17.5344 11.975 17.7056 14.1246 19.2617C15.2975 20.1082 16.3477 20.8471 16.4557 20.9009C16.7305 21.033 17.2213 21.033 17.5158 20.9009C18.0016 20.6856 18.3501 20.0789 18.2814 19.5797C18.2666 19.4623 17.8887 18.2488 17.447 16.8836C17.0005 15.5184 16.6226 14.2902 16.6029 14.1532C16.544 13.6687 16.76 13.0082 17.1133 12.6216C17.2115 12.509 18.2863 11.6968 19.5034 10.816C21.6578 9.25505 21.7118 9.21101 21.8541 8.93699C22.2222 8.21769 21.864 7.33202 21.1131 7.10693C20.9315 7.05311 20.3524 7.03843 18.1734 7.03843C15.6165 7.03843 15.4496 7.03353 15.1503 6.94056C14.6055 6.77419 14.1589 6.4072 13.9135 5.92766C13.8497 5.79555 13.4277 4.57224 12.9811 3.20214C12.4167 1.47484 12.132 0.662561 12.0388 0.545124C11.8523 0.29557 11.5578 0.104734 11.2781 0.0460167C10.9787 -0.0175953 10.9297 -0.0175953 10.6352 0.0606956Z" fill="black"/>
</svg>
