<svg width="24" height="24" viewBox="0 0 24 24" fill="none" xmlns="http://www.w3.org/2000/svg">
<path fill-rule="evenodd" clip-rule="evenodd" d="M15.9099 8.09012C16.03 8.21028 16.03 8.4051 15.9099 8.52526L8.52526 15.9099C8.4051 16.03 8.21028 16.03 8.09012 15.9099C7.96996 15.7897 7.96996 15.5949 8.09012 15.4747L15.4747 8.09012C15.5949 7.96996 15.7897 7.96996 15.9099 8.09012Z" fill="#211D1D"/>
<path fill-rule="evenodd" clip-rule="evenodd" d="M8.09012 8.09012C8.21028 7.96996 8.4051 7.96996 8.52526 8.09012L15.9099 15.4747C16.03 15.5949 16.03 15.7897 15.9099 15.9099C15.7897 16.03 15.5949 16.03 15.4747 15.9099L8.09012 8.52526C7.96996 8.4051 7.96996 8.21028 8.09012 8.09012Z" fill="#211D1D"/>
</svg>
